<svg width="256" height="256" viewBox="0 0 256 256" fill="none" xmlns="http://www.w3.org/2000/svg">
<path d="M42.6666 234.667H170.667V213.333H42.6666V85.3333H21.3333V213.333C21.3333 225.099 30.9013 234.667 42.6666 234.667Z" fill="black"/>
<path d="M213.333 21.3333H85.3333C73.568 21.3333 64 30.9013 64 42.6666V170.667C64 182.432 73.568 192 85.3333 192H213.333C225.099 192 234.667 182.432 234.667 170.667V42.6666C234.667 30.9013 225.099 21.3333 213.333 21.3333ZM192 117.333H160V149.333H138.667V117.333H106.667V95.9999H138.667V63.9999H160V95.9999H192V117.333Z" fill="black"/>
</svg>
