<svg width="23" height="24" viewBox="0 0 23 24" fill="none" xmlns="http://www.w3.org/2000/svg">
<path d="M16.2088 15.5368C16.8941 15.1783 17.6786 14.9743 18.514 14.9743H18.5169C18.6018 14.9743 18.6415 14.875 18.5792 14.8199C17.7103 14.0607 16.7179 13.4475 15.6424 13.0055C15.631 13 15.6197 12.9972 15.6084 12.9917C17.3671 11.7482 18.5112 9.72703 18.5112 7.44669C18.5112 3.66912 15.3733 0.608459 11.5019 0.608459C7.63054 0.608459 4.49548 3.66912 4.49548 7.44669C4.49548 9.72703 5.63962 11.7482 7.40114 12.9917C7.38982 12.9972 7.37849 13 7.36716 13.0055C6.10124 13.5267 4.9656 14.2739 3.98855 15.2279C3.01714 16.172 2.24377 17.2912 1.71159 18.523C1.18799 19.7292 0.905404 21.0216 0.878977 22.3309C0.878221 22.3603 0.883523 22.3896 0.89457 22.417C0.905617 22.4444 0.922185 22.4694 0.943299 22.4904C0.964413 22.5115 0.989646 22.5283 1.01751 22.5397C1.04537 22.5511 1.0753 22.557 1.10554 22.557H2.80193C2.9237 22.557 3.02566 22.4605 3.02849 22.3419C3.08513 20.2132 3.96023 18.2197 5.50935 16.7086C7.10945 15.1452 9.23913 14.2849 11.5048 14.2849C13.1105 14.2849 14.6511 14.7178 15.9794 15.5285C16.0135 15.5494 16.0527 15.5611 16.0929 15.5626C16.1332 15.564 16.1731 15.5551 16.2088 15.5368ZM11.5048 12.1893C10.2077 12.1893 8.98708 11.6958 8.06667 10.7996C7.61382 10.3599 7.25481 9.8372 7.01032 9.26175C6.76584 8.6863 6.64072 8.06943 6.64216 7.44669C6.64216 6.18107 7.14909 4.98989 8.06667 4.09375C8.98425 3.19761 10.2049 2.70405 11.5048 2.70405C12.8047 2.70405 14.0224 3.19761 14.9428 4.09375C15.3957 4.53353 15.7547 5.05619 15.9992 5.63164C16.2437 6.20709 16.3688 6.82396 16.3674 7.44669C16.3674 8.71232 15.8604 9.9035 14.9428 10.7996C14.0224 11.6958 12.8018 12.1893 11.5048 12.1893ZM21.921 18.7518H19.5421V16.4357C19.5421 16.3143 19.4401 16.2151 19.3155 16.2151H17.7296C17.605 16.2151 17.503 16.3143 17.503 16.4357V18.7518H15.1241C14.9995 18.7518 14.8975 18.8511 14.8975 18.9724V20.5165C14.8975 20.6379 14.9995 20.7371 15.1241 20.7371H17.503V23.0533C17.503 23.1746 17.605 23.2739 17.7296 23.2739H19.3155C19.4401 23.2739 19.5421 23.1746 19.5421 23.0533V20.7371H21.921C22.0456 20.7371 22.1475 20.6379 22.1475 20.5165V18.9724C22.1475 18.8511 22.0456 18.7518 21.921 18.7518Z" fill="black"/>
</svg>
