<svg width="36" height="36" viewBox="0 0 36 36" fill="none" xmlns="http://www.w3.org/2000/svg">
<circle cx="18" cy="18" r="17.5" stroke="#3A3A3C" stroke-opacity="0.99"/>
<path d="M21.6878 12.3413L21.6875 12.3423C21.239 12.3423 20.8297 12.4104 20.4558 12.5422C20.0322 12.6916 19.6492 12.8396 19.3062 12.9863C18.917 13.1527 18.5404 13.2541 18.189 13.255L18.1877 13.255C17.659 13.255 17.0991 13.0734 16.521 12.7627C16.0626 12.5163 15.5486 12.3896 14.9688 12.3896C14.2438 12.3896 13.5403 12.5893 12.8511 13.0026C12.1759 13.4075 11.6122 14.0062 11.1651 14.8193C10.7316 15.6076 10.5007 16.6043 10.5 17.8327L21.6878 12.3413ZM21.6878 12.3413C21.837 12.3415 22.123 12.3682 22.5688 12.431C22.9475 12.4843 23.3864 12.6297 23.8891 12.8849C24.2364 13.0611 24.5772 13.3382 24.9072 13.7325C24.85 13.778 24.7857 13.8288 24.7141 13.8848C24.3026 14.2071 23.9224 14.6716 23.5656 15.2511C23.1654 15.9012 22.9834 16.6989 22.9834 17.6123V17.6128C22.9842 18.4135 23.1241 19.1245 23.4284 19.7251C23.7095 20.2799 24.0454 20.7462 24.4429 21.1098C24.8022 21.4384 25.1394 21.6974 25.4521 21.8706C25.4701 21.8806 25.4876 21.8902 25.5045 21.8996M21.6878 12.3413L25.5045 21.8996M25.5045 21.8996C25.4567 22.034 25.3951 22.2032 25.3194 22.408C25.124 22.9364 24.805 23.5345 24.3515 24.2038L24.3507 24.2049C23.9481 24.8026 23.5138 25.3503 23.0481 25.8485C22.6512 26.2733 22.2049 26.4678 21.6865 26.4678C21.2714 26.4678 20.9802 26.4053 20.7845 26.3121C20.4908 26.1722 20.1841 26.0355 19.8646 25.9018C19.467 25.7354 18.9767 25.6668 18.4217 25.6668C17.8803 25.6668 17.3944 25.74 16.9826 25.9082C16.6421 26.0473 16.3167 26.1896 16.0065 26.3349C15.7854 26.4386 15.5019 26.5 15.1408 26.5C14.6711 26.5 14.2566 26.3166 13.8775 25.9005C13.4297 25.409 12.9601 24.8246 12.469 24.1453C11.9215 23.378 11.4525 22.4197 11.0686 21.2609C10.6885 20.1135 10.5 18.9714 10.5 17.833L25.5045 21.8996ZM25.2206 13.473C25.2216 13.472 25.2222 13.4714 25.2222 13.4714C25.2222 13.4714 25.2217 13.4719 25.2206 13.473ZM20.6499 7.89648C20.9522 7.73435 21.2393 7.62501 21.5125 7.56278C21.4963 7.96017 21.4153 8.34853 21.2681 8.72989C21.1018 9.16066 20.8794 9.53235 20.6028 9.84965L20.5927 9.85981L20.5749 9.88238C20.2995 10.2317 19.9417 10.5266 19.492 10.7642C19.1142 10.9638 18.7805 11.0682 18.4863 11.0978C18.5029 10.6939 18.5958 10.308 18.7662 9.93641C18.9693 9.49339 19.1952 9.1349 19.4395 8.85295L19.4395 8.85297L19.4436 8.84814C19.7527 8.48215 20.1517 8.16365 20.6499 7.89648Z" fill="white" stroke="black"/>
</svg>
