<svg width="30" height="30" viewBox="0 0 30 30" fill="none" xmlns="http://www.w3.org/2000/svg">
<path opacity="0.3" d="M13.3254 5.15C16.5129 10.4375 22.1129 9.9875 22.3004 9.975L21.5879 8.4125L15.5004 5.625L16.5629 5.1375C16.0504 5.05 15.5379 5 15.0004 5C14.4254 5 13.8629 5.0625 13.3254 5.15ZM10.1004 6.2875C7.9434 7.51031 6.31413 9.48681 5.52539 11.8375C7.68238 10.6147 9.31165 8.63819 10.1004 6.2875Z" fill="#04060A"/>
<path d="M24.8625 13.4375C24.95 13.95 25 14.4625 25 15C25 20.5125 20.5125 25 15 25C9.4875 25 5 20.5125 5 15C5 14.9375 5.0125 14.875 5 14.825C8.25 13.6 10.8625 11.0875 12.175 7.88751C16.4 13.0625 22.1375 12.55 23.4125 12.4L22.3 9.98751C22.1375 10 16.525 10.4625 13.325 5.16251C14.5875 4.96251 15.4625 4.97501 16.5625 5.15001L19.2125 3.93751L20.0125 3.57501C18.4384 2.86055 16.7287 2.49389 15 2.50001C8.1 2.50001 2.5 8.10001 2.5 15C2.5 21.9 8.1 27.5 15 27.5C21.9 27.5 27.5 21.9 27.5 15C27.5 13.2125 27.125 11.525 26.45 9.98751L24.8625 13.4375ZM10.1 6.28751C9.31126 8.63821 7.68199 10.6147 5.525 11.8375C6.31374 9.48682 7.94301 7.51033 10.1 6.28751Z" fill="#04060A"/>
<path d="M11.25 17.8125C12.1129 17.8125 12.8125 17.1129 12.8125 16.25C12.8125 15.3871 12.1129 14.6875 11.25 14.6875C10.3871 14.6875 9.6875 15.3871 9.6875 16.25C9.6875 17.1129 10.3871 17.8125 11.25 17.8125Z" fill="#04060A"/>
<path d="M18.75 17.8125C19.6129 17.8125 20.3125 17.1129 20.3125 16.25C20.3125 15.3871 19.6129 14.6875 18.75 14.6875C17.8871 14.6875 17.1875 15.3871 17.1875 16.25C17.1875 17.1129 17.8871 17.8125 18.75 17.8125Z" fill="#04060A"/>
<path d="M25.75 4.25L24.375 1.25L23 4.25L20 5.625L23 7L24.375 10L25.75 7L28.75 5.625L25.75 4.25Z" fill="#04060A"/>
</svg>
