<svg width="36" height="36" viewBox="0 0 36 36" fill="none" xmlns="http://www.w3.org/2000/svg">
<path d="M0.9375 1.61719C0.3125 1.88281 0 2.34375 0 3V13.5C0 13.9062 0.148438 14.2578 0.445312 14.5547C0.742188 14.8516 1.09375 15 1.5 15H12C12.6562 15 13.1172 14.6875 13.3828 14.0625C13.6484 13.4531 13.5391 12.9141 13.0547 12.4453L0.9375 1.61719ZM0.9375 1.61719C1.54688 1.35156 2.08594 1.46094 2.55469 1.94531L0.9375 1.61719ZM4.4428 28.7475L4.4437 28.7466L7.64678 25.5201C7.72638 25.451 7.82751 25.4088 7.97069 25.405C8.13978 25.43 8.21004 25.4874 8.24452 25.5366L8.24898 25.543L8.25372 25.5492C9.42666 27.0756 10.8671 28.2589 12.5724 29.0955C14.277 29.9317 16.0876 30.35 18 30.35C19.6718 30.35 21.2696 30.0242 22.7902 29.3725C24.3055 28.7231 25.6206 27.8431 26.7319 26.7319C27.8431 25.6206 28.7231 24.3055 29.3725 22.7902C30.0242 21.2696 30.35 19.6718 30.35 18C30.35 16.3282 30.0242 14.7304 29.3725 13.2098C28.7231 11.6945 27.8431 10.3794 26.7319 9.26814C25.6206 8.15686 24.3055 7.27692 22.7902 6.62752C21.2696 5.97581 19.6718 5.65 18 5.65C16.4254 5.65 14.913 5.93541 13.4653 6.50644C12.0179 7.07737 10.73 7.89433 9.60365 8.95628L9.34234 9.20265L9.59536 9.45752L12.8063 12.6919L12.8063 12.6919L12.8113 12.6968C13.0142 12.8932 13.1193 13.0848 13.157 13.2708C13.1946 13.4563 13.1722 13.6699 13.062 13.9226L13.0607 13.9256C12.9484 14.1898 12.8051 14.365 12.6415 14.4759C12.4787 14.5863 12.2709 14.65 12 14.65H1.5C1.18999 14.65 0.926492 14.5409 0.6928 14.3072C0.459108 14.0735 0.35 13.81 0.35 13.5V3C0.35 2.72913 0.413724 2.52128 0.524073 2.35851C0.634983 2.19492 0.810177 2.0516 1.0744 1.9393L1.0744 1.93932L1.07735 1.93803C1.33015 1.82784 1.54374 1.80538 1.72923 1.84301C1.91517 1.88074 2.10677 1.98576 2.30318 2.18871L2.30313 2.18876L2.30816 2.19375L5.35503 5.21719L5.59548 5.45579L5.84181 5.22327C7.4817 3.67533 9.35474 2.47632 11.463 1.62534C13.5702 0.774806 15.7484 0.35 18 0.35C20.3905 0.35 22.6715 0.817075 24.8462 1.75127C27.0267 2.68794 28.903 3.94485 30.4791 5.52093C32.0552 7.097 33.3121 8.97332 34.2487 11.1538C35.1829 13.3285 35.65 15.6095 35.65 18C35.65 20.3905 35.1829 22.6715 34.2487 24.8462C33.3121 27.0267 32.0552 28.903 30.4791 30.4791C28.903 32.0552 27.0267 33.3121 24.8462 34.2487C22.6715 35.1829 20.3905 35.65 18 35.65C15.3635 35.65 12.8594 35.0947 10.4842 33.9837C8.11407 32.8751 6.09639 31.3136 4.42821 29.2969C4.36872 29.2079 4.34116 29.1108 4.34581 28.9945C4.35051 28.877 4.3868 28.8035 4.4428 28.7475ZM18 19.85H18.35V19.5V11.25C18.35 11.1139 18.3903 11.0265 18.4584 10.9584C18.5265 10.8903 18.6139 10.85 18.75 10.85H20.25C20.3861 10.85 20.4735 10.8903 20.5416 10.9584C20.6097 11.0265 20.65 11.1139 20.65 11.25V21.75C20.65 21.8861 20.6097 21.9735 20.5416 22.0416C20.4735 22.1097 20.3861 22.15 20.25 22.15H12.75C12.6139 22.15 12.5265 22.1097 12.4584 22.0416C12.3903 21.9735 12.35 21.8861 12.35 21.75V20.25C12.35 20.1139 12.3903 20.0265 12.4584 19.9584C12.5265 19.8903 12.6139 19.85 12.75 19.85H18Z" fill="#F8FBFF" stroke="#04060A" stroke-width="0.7"/>
</svg>
