<svg width="22" height="24" viewBox="0 0 22 24" fill="none" xmlns="http://www.w3.org/2000/svg">
<path fill-rule="evenodd" clip-rule="evenodd" d="M18.125 13.4625C18.2875 14.4375 18.45 15.25 18.775 16.225L19.75 18.9875L18.9375 20.125H13.25C13.25 20.9375 12.925 21.75 12.275 22.4C11.625 23.05 10.8125 23.375 10 23.375C9.1875 23.375 8.2125 23.05 7.725 22.4C7.075 21.75 6.75 20.9375 6.75 20.125H1.0625L0.25 18.9875L1.225 16.225C1.55 14.925 1.875 13.625 1.875 12.325V8.75C1.875 7.6125 2.0375 6.475 2.525 5.5C3.0125 4.3625 3.6625 3.55 4.475 2.7375C5.2875 1.925 6.2625 1.4375 7.4 1.1125C8.2125 0.7875 9.1875 0.625 10 0.625C9.675 1.1125 9.35 1.7625 9.025 2.4125C8.7 2.4125 8.375 2.4125 7.8875 2.7375C7.075 2.9 6.2625 3.3875 5.6125 4.0375C4.9625 4.525 4.3125 5.3375 3.9875 6.15C3.6625 6.9625 3.5 7.775 3.5 8.75V12.325C3.5 13.7875 3.175 15.25 2.85 16.7125L2.2 18.5H17.8L17.15 16.7125C16.8656 15.8577 16.7048 14.8762 16.5601 13.9922L16.5 13.625C17.15 13.625 17.6375 13.625 18.125 13.4625ZM10 21.75C10.325 21.75 10.8125 21.5875 11.1375 21.2625C11.4625 20.9375 11.625 20.6125 11.625 20.125H8.375C8.375 20.6125 8.5375 20.9375 8.8625 21.2625C9.1875 21.5875 9.675 21.75 10 21.75ZM21.375 5.5C21.375 6.79293 20.8614 8.03291 19.9471 8.94715C19.0329 9.86139 17.7929 10.375 16.5 10.375C15.2071 10.375 13.9671 9.86139 13.0529 8.94715C12.1386 8.03291 11.625 6.79293 11.625 5.5C11.625 4.20707 12.1386 2.96709 13.0529 2.05285C13.9671 1.13861 15.2071 0.625 16.5 0.625C17.7929 0.625 19.0329 1.13861 19.9471 2.05285C20.8614 2.96709 21.375 4.20707 21.375 5.5Z" fill="#E63844"/>
</svg>
