<svg width="48" height="48" viewBox="0 0 48 48" fill="none" xmlns="http://www.w3.org/2000/svg">
<path d="M24 0C10.7464 0 0 10.7464 0 24C0 37.2536 10.7464 48 24 48C37.2536 48 48 37.2536 48 24C48 10.7464 37.2536 0 24 0ZM24 43.9286C12.9964 43.9286 4.07143 35.0036 4.07143 24C4.07143 12.9964 12.9964 4.07143 24 4.07143C35.0036 4.07143 43.9286 12.9964 43.9286 24C43.9286 35.0036 35.0036 43.9286 24 43.9286Z" fill="#E63844"/>
<path d="M33.311 15.4286C33.311 15.1929 33.1181 15 32.8824 15L29.3467 15.0161L24.0217 21.3643L18.7021 15.0214L15.161 15.0054C14.9253 15.0054 14.7324 15.1929 14.7324 15.4339C14.7324 15.5357 14.7699 15.6321 14.8342 15.7125L21.8038 24.0161L14.8342 32.3143C14.7695 32.3928 14.7336 32.4911 14.7324 32.5929C14.7324 32.8286 14.9253 33.0214 15.161 33.0214L18.7021 33.0054L24.0217 26.6571L29.3413 33L32.8771 33.0161C33.1128 33.0161 33.3056 32.8286 33.3056 32.5875C33.3056 32.4857 33.2681 32.3893 33.2038 32.3089L26.2449 24.0107L33.2146 15.7071C33.2788 15.6321 33.311 15.5304 33.311 15.4286V15.4286Z" fill="#E63844"/>
</svg>
