<svg width="22" height="25" viewBox="0 0 22 25" fill="none" xmlns="http://www.w3.org/2000/svg">
<g clip-path="url(#clip0_1522_7457)">
<g clip-path="url(#clip1_1522_7457)" filter="url(#filter0_f_1522_7457)">
<path d="M5.11328 21.9361L6.39512 20.4854L3.08487 16.739L1.80303 18.1898V19.8955H3.60606V21.9361H5.11328ZM12.4804 7.142C12.4804 6.90818 12.3771 6.79127 12.1705 6.79127C12.0765 6.79127 11.9967 6.82847 11.931 6.90287L4.29628 15.5434C4.23055 15.6178 4.19768 15.7081 4.19768 15.8144C4.19768 16.0482 4.30098 16.1651 4.50758 16.1651C4.60148 16.1651 4.68131 16.1279 4.74704 16.0535L12.3818 7.41301C12.4475 7.33861 12.4804 7.24828 12.4804 7.142ZM11.7197 4.08114L17.5795 10.713L5.85985 23.9767H0V17.3448L11.7197 4.08114ZM21.3406 5.61157C21.3406 6.17485 21.1668 6.65311 20.8194 7.04634L18.4811 9.69271L12.6212 3.06086L14.9595 0.43044C15.2976 0.0265772 15.7202 -0.175354 16.2273 -0.175354C16.725 -0.175354 17.1523 0.0265772 17.5091 0.43044L20.8194 4.16085C21.1668 4.57534 21.3406 5.05892 21.3406 5.61157Z" fill="#C9D1E1"/>
</g>
<path d="M5.6406 14.3401L3.74572 16.4865L0.730154 22.2734C0.645637 22.4456 0.630424 22.7823 1.0902 23.3026C1.54997 23.823 1.79676 23.7503 1.95058 23.6546L7.06386 20.2418L8.95874 18.0954L5.6406 14.3401Z" fill="#C62828"/>
<path d="M3.12234 20.3776C3.0936 20.4216 1.5537 22.4533 1.4658 22.5413C1.30353 22.7058 1.08548 22.5623 1.20549 22.2467C1.29508 22.0113 1.7464 21.116 2.0794 20.4905C2.27379 20.1251 2.71666 19.2298 3.15276 19.4785C3.52464 19.6928 3.29137 20.1251 3.12234 20.3776V20.3776Z" fill="#F44336"/>
<path d="M3.58516 16.8156L2.9834 17.9462C2.9834 17.9462 3.52093 17.6037 4.29848 18.8912C4.90363 19.8917 4.93743 21.6593 4.93743 21.6593L6.72243 20.4675C6.70046 20.3853 3.58516 16.8156 3.58516 16.8156V16.8156Z" fill="#AD1414"/>
<path d="M3.32965 15.8667C3.06765 16.1632 3.17752 16.9801 3.43953 17.2785L6.35875 20.7105C6.62075 21.007 7.3459 21.007 7.6096 20.7105L20.4917 6.13127L16.2117 1.28748" fill="#C62828"/>
<path d="M3.68164 15.4688C3.68164 15.4688 4.2665 16.3679 5.61032 17.883C7.35306 19.8477 7.96158 20.3126 7.96158 20.3126L20.4921 6.13127L16.2121 1.28748" fill="#EF5350"/>
<path d="M15.8652 1.67963C15.8652 1.67963 16.8118 2.10241 18.1709 3.55057C19.7513 5.23213 20.1435 6.52343 20.1435 6.52343L20.8619 5.71039C20.9937 5.56117 21.2101 4.09961 19.6077 2.28606C18.0052 0.472505 16.7138 0.719287 16.5819 0.86659" fill="#C62828"/>
<path d="M18.6307 2.16746C18.6847 2.27459 18.7287 2.39511 18.727 2.51945C18.7253 2.6438 18.6678 2.77197 18.5681 2.82171C18.4058 2.90015 18.2351 2.75476 18.0897 2.64189C17.7838 2.40467 17.2801 2.07372 16.9555 1.87094C16.5465 1.61268 16.849 0.954594 17.297 1.07129C17.799 1.20137 18.3788 1.66433 18.6307 2.16746V2.16746Z" fill="#F44336"/>
<path d="M8.88586 19.2661L9.85443 18.17C7.81925 16.2703 5.62012 13.2764 5.62012 13.2764L4.64648 14.3783C5.31248 15.4611 6.93014 17.3933 8.88586 19.2661V19.2661ZM15.1705 2.4678L14.1969 3.56971C16.3842 5.25127 17.8328 7.25421 18.5293 8.35229L19.4995 7.25421C18.7253 6.06048 17.2902 4.14745 15.1705 2.4678V2.4678Z" fill="#424242"/>
</g>
<defs>
<filter id="filter0_f_1522_7457" x="-4" y="-4.51013" width="29.6367" height="32.4868" filterUnits="userSpaceOnUse" color-interpolation-filters="sRGB">
<feFlood flood-opacity="0" result="BackgroundImageFix"/>
<feBlend mode="normal" in="SourceGraphic" in2="BackgroundImageFix" result="shape"/>
<feGaussianBlur stdDeviation="2" result="effect1_foregroundBlur_1522_7457"/>
</filter>
<clipPath id="clip0_1522_7457">
<rect width="21.6364" height="24.4868" rx="4" fill="white"/>
</clipPath>
<clipPath id="clip1_1522_7457">
<rect width="21.6364" height="24.4868" fill="white" transform="translate(0 -0.510132)"/>
</clipPath>
</defs>
</svg>
