<svg width="36" height="36" viewBox="0 0 36 36" fill="none" xmlns="http://www.w3.org/2000/svg">
<rect width="36" height="36" rx="10" fill="#FFA144"/>
<path fill-rule="evenodd" clip-rule="evenodd" d="M21.8182 8.69231C21.8182 9.62694 22.5759 10.3846 23.5105 10.3846H26.1538C26.6212 10.3846 27 10.7635 27 11.2308C27 11.6981 26.6212 12.0769 26.1538 12.0769H26.1364C25.6594 12.0769 25.2727 12.4636 25.2727 12.9406V26.0811C25.2727 26.8656 24.957 27.6171 24.3966 28.1661C23.851 28.7006 23.1177 29 22.3539 29H12.6461C11.8823 29 11.149 28.7006 10.6034 28.1661C10.043 27.6171 9.72727 26.8656 9.72727 26.0811V12.9406C9.72727 12.4636 9.34061 12.0769 8.86364 12.0769H8.84615C8.37884 12.0769 8 11.6981 8 11.2308C8 10.7635 8.37884 10.3846 8.84615 10.3846H11.4895C12.4241 10.3846 13.1818 9.62694 13.1818 8.69231C13.1818 8.24348 13.3638 7.81303 13.6877 7.49567C14.0117 7.1783 14.451 7 14.9091 7H20.0909C20.549 7 20.9883 7.1783 21.3123 7.49567C21.6362 7.81303 21.8182 8.24348 21.8182 8.69231ZM20.0909 9.53846C20.0909 9.07114 19.7121 8.69231 19.2448 8.69231H15.7552C15.2879 8.69231 14.9091 9.07114 14.9091 9.53846C14.9091 10.0058 15.2879 10.3846 15.7552 10.3846H19.2448C19.7121 10.3846 20.0909 10.0058 20.0909 9.53846ZM11.4545 21.2622C11.4545 24.6011 14.1612 27.3077 17.5 27.3077C20.8388 27.3077 23.5455 24.6011 23.5455 21.2622V18.1224C23.5455 14.7836 20.8388 12.0769 17.5 12.0769C14.1612 12.0769 11.4545 14.7836 11.4545 18.1224V21.2622ZM14.9091 14.6329C14.9091 14.1559 14.5224 13.7692 14.0455 13.7692C13.5685 13.7692 13.1818 14.1559 13.1818 14.6329V24.7517C13.1818 25.2287 13.5685 25.6154 14.0455 25.6154C14.5224 25.6154 14.9091 25.2287 14.9091 24.7517V14.6329ZM16.6364 14.6329C16.6364 14.1559 17.023 13.7692 17.5 13.7692C17.977 13.7692 18.3636 14.1559 18.3636 14.6329V24.7517C18.3636 25.2287 17.977 25.6154 17.5 25.6154C17.023 25.6154 16.6364 25.2287 16.6364 24.7517V14.6329ZM20.0909 14.6329C20.0909 14.1559 20.4776 13.7692 20.9545 13.7692C21.4315 13.7692 21.8182 14.1559 21.8182 14.6329V24.7517C21.8182 25.2287 21.4315 25.6154 20.9545 25.6154C20.4776 25.6154 20.0909 25.2287 20.0909 24.7517V14.6329Z" fill="#F8FBFF"/>
</svg>
