<svg width="22" height="22" viewBox="0 0 22 22" fill="none" xmlns="http://www.w3.org/2000/svg">
<path fill-rule="evenodd" clip-rule="evenodd" d="M11 22C17.075 22 22 17.075 22 11C22 4.925 17.075 0 11 0C4.925 0 0 4.925 0 11C0 17.075 4.925 22 11 22ZM14.2 9C14.3419 8.99836 14.4818 9.03409 14.6055 9.1036C14.7293 9.17311 14.8326 9.27395 14.905 9.396C14.9732 9.51456 15.0057 9.6503 14.9986 9.7869C14.9915 9.9235 14.9451 10.0551 14.865 10.166L11.665 14.666C11.5886 14.7705 11.4885 14.8552 11.3728 14.9133C11.2572 14.9714 11.1294 15.0011 11 15C10.732 15 10.483 14.875 10.334 14.666L7.134 10.166C7.05387 10.0551 7.00747 9.9235 7.00037 9.7869C6.99327 9.6503 7.02579 9.51456 7.094 9.396C7.16653 9.2738 7.26997 9.17287 7.39391 9.10335C7.51785 9.03383 7.65791 8.99819 7.8 9H14.2Z" fill="#FFA144"/>
</svg>
