<svg width="36" height="36" viewBox="0 0 36 36" fill="none" xmlns="http://www.w3.org/2000/svg">
<circle cx="18" cy="18" r="17.5" stroke="#3A3A3C" stroke-opacity="0.99"/>
<path d="M16.3499 27.9001C11.6 27.0501 8 22.9502 8 18.0001C8 12.5002 12.5 8 17.9999 8C23.4998 8 28 12.5002 28 18.0001C28 22.9502 24.4 27.0501 19.6499 27.9001L19.0999 27.4502H16.9001L16.3499 27.9001Z" fill="#4267B2"/>
<path d="M21.8998 20.8001L22.3499 18.0001H19.6998V16.0501C19.6998 15.2501 20 14.6501 21.1999 14.6501H22.4998V12.1001C21.7999 12 20.9999 11.8999 20.2998 11.8999C17.9998 11.8999 16.3999 13.3001 16.3999 15.8001V18.0001H13.8999V20.8001H16.3997V27.8501C16.9497 27.9501 17.4997 28.0002 18.0498 28.0002C18.5996 28.0002 19.1496 27.9501 19.6996 27.8501V20.8001H21.8998Z" fill="white"/>
</svg>
