<svg width="36" height="36" viewBox="0 0 36 36" fill="none" xmlns="http://www.w3.org/2000/svg">
<circle cx="18" cy="18" r="17.5" stroke="#3A3A3C" stroke-opacity="0.99"/>
<g clip-path="url(#clip0_765_5373)">
<path d="M27.575 18.225C27.575 17.5667 27.5167 16.9417 27.4167 16.3333H18V20.0917H23.3917C23.15 21.325 22.4417 22.3667 21.3917 23.075V25.575H24.6083C26.4917 23.8333 27.575 21.2667 27.575 18.225Z" fill="#4285F4"/>
<path d="M18.0002 28C20.7002 28 22.9585 27.1 24.6085 25.575L21.3919 23.075C20.4919 23.675 19.3502 24.0417 18.0002 24.0417C15.3919 24.0417 13.1835 22.2834 12.3919 19.9084H9.0752V22.4834C10.7169 25.75 14.0919 28 18.0002 28Z" fill="#34A853"/>
<path d="M12.3917 19.9083C12.1833 19.3083 12.075 18.6667 12.075 18C12.075 17.3333 12.1917 16.6917 12.3917 16.0917V13.5167H9.075C8.39167 14.8667 8 16.3833 8 18C8 19.6167 8.39167 21.1333 9.075 22.4833L12.3917 19.9083Z" fill="#FBBC05"/>
<path d="M18.0002 11.9583C19.4752 11.9583 20.7919 12.4667 21.8335 13.4583L24.6835 10.6083C22.9585 8.99167 20.7002 8 18.0002 8C14.0919 8 10.7169 10.25 9.0752 13.5167L12.3919 16.0917C13.1835 13.7167 15.3919 11.9583 18.0002 11.9583Z" fill="#EA4335"/>
</g>
<defs>
<clipPath id="clip0_765_5373">
<rect width="20" height="20" fill="white" transform="translate(8 8)"/>
</clipPath>
</defs>
</svg>
