<svg width="36" height="42" viewBox="0 0 36 42" fill="none" xmlns="http://www.w3.org/2000/svg">
<g clip-path="url(#clip0_898_5347)">
<path d="M0 37.2857C0 39.4152 1.72768 41.1429 3.85714 41.1429H32.1429C34.2723 41.1429 36 39.4152 36 37.2857V15.4286H0V37.2857ZM5.14286 21.8571C5.14286 21.15 5.72143 20.5714 6.42857 20.5714H29.5714C30.2786 20.5714 30.8571 21.15 30.8571 21.8571V27C30.8571 27.7071 30.2786 28.2857 29.5714 28.2857H6.42857C5.72143 28.2857 5.14286 27.7071 5.14286 27V21.8571ZM32.1429 5.14286H28.2857V1.28571C28.2857 0.578571 27.7071 0 27 0H24.4286C23.7214 0 23.1429 0.578571 23.1429 1.28571V5.14286H12.8571V1.28571C12.8571 0.578571 12.2786 0 11.5714 0H9C8.29286 0 7.71429 0.578571 7.71429 1.28571V5.14286H3.85714C1.72768 5.14286 0 6.87054 0 9V12.8571H36V9C36 6.87054 34.2723 5.14286 32.1429 5.14286Z" fill="#0F286A"/>
</g>
<defs>
<clipPath id="clip0_898_5347">
<rect width="36" height="41.1429" fill="white"/>
</clipPath>
</defs>
</svg>
