<svg width="32" height="32" viewBox="0 0 32 32" fill="none" xmlns="http://www.w3.org/2000/svg">
<path d="M24.3333 1H7.66667C3.98477 1 1 3.98477 1 7.66667V24.3333C1 28.0152 3.98477 31 7.66667 31H24.3333C28.0152 31 31 28.0152 31 24.3333V7.66667C31 3.98477 28.0152 1 24.3333 1Z" fill="#2F88FF" stroke="black" stroke-linejoin="round"/>
<path d="M15.9999 22.6663C19.6818 22.6663 22.6666 19.6816 22.6666 15.9997C22.6666 12.3178 19.6818 9.33301 15.9999 9.33301C12.318 9.33301 9.33325 12.3178 9.33325 15.9997C9.33325 19.6816 12.318 22.6663 15.9999 22.6663Z" fill="#0F286A" stroke="white" stroke-linejoin="round"/>
<path d="M25.1667 8.50033C26.0872 8.50033 26.8333 7.75416 26.8333 6.83366C26.8333 5.91316 26.0872 5.16699 25.1667 5.16699C24.2462 5.16699 23.5 5.91316 23.5 6.83366C23.5 7.75416 24.2462 8.50033 25.1667 8.50033Z" fill="white"/>
</svg>
