<svg width="467" height="464" viewBox="0 0 467 464" fill="none" xmlns="http://www.w3.org/2000/svg">
<path d="M187.434 8.00463H260M252.434 12.0046V81.0046M8.43383 73L8.51447 4M1 8.00467L70 8.08532M73.5 249.005H1M8.49635 245.064L8.43343 176.064" stroke="#FFA144" stroke-width="15"/>
<path d="M80.8809 232.804C65.9476 232.804 54.5609 228.604 46.7209 220.204C38.8809 211.618 34.9609 199.391 34.9609 183.524V34.0044H65.7609V185.764C65.7609 192.484 67.0676 197.338 69.6809 200.324C72.4809 203.311 76.4009 204.804 81.4409 204.804C86.4809 204.804 90.3076 203.311 92.9209 200.324C95.7209 197.338 97.1209 192.484 97.1209 185.764V34.0044H126.801V183.524C126.801 199.391 122.881 211.618 115.041 220.204C107.201 228.604 95.8143 232.804 80.8809 232.804Z" fill="#F8FBFF"/>
<path d="M138.737 34.0044H184.097C199.404 34.0044 210.884 38.1111 218.537 46.3244C226.191 54.5377 230.017 66.5777 230.017 82.4444V101.764C230.017 117.631 226.191 129.671 218.537 137.884C210.884 146.098 199.404 150.204 184.097 150.204H169.537V230.004H138.737V34.0044ZM184.097 122.204C189.137 122.204 192.871 120.804 195.297 118.004C197.911 115.204 199.217 110.444 199.217 103.724V80.4844C199.217 73.7644 197.911 69.0044 195.297 66.2044C192.871 63.4044 189.137 62.0044 184.097 62.0044H169.537V122.204H184.097Z" fill="#F8FBFF"/>
<path d="M176.949 157.004H223.989C239.296 157.004 250.776 161.111 258.429 169.324C266.083 177.538 269.909 189.578 269.909 205.444V304.564C269.909 320.431 266.083 332.471 258.429 340.684C250.776 348.898 239.296 353.004 223.989 353.004H176.949V157.004ZM223.429 325.004C228.469 325.004 232.296 323.511 234.909 320.524C237.709 317.538 239.109 312.684 239.109 305.964V204.044C239.109 197.324 237.709 192.471 234.909 189.484C232.296 186.498 228.469 185.004 223.429 185.004H207.749V325.004H223.429Z" fill="#F8FBFF"/>
<path d="M303.952 157.004H345.672L377.592 353.004H346.792L341.192 314.084V314.644H306.192L300.592 353.004H272.032L303.952 157.004ZM337.552 288.044L323.832 191.164H323.272L309.832 288.044H337.552Z" fill="#F8FBFF"/>
<path d="M397.964 269.564L360.724 157.004H393.484L414.484 228.964H415.044L436.044 157.004H466.004L428.764 269.564V353.004H397.964V269.564Z" fill="#F8FBFF"/>
<path d="M177.434 463.384V368.005H205.434V432.584H257.234L257.434 384.005H285.434L285.234 432.584H345.434V368.005H373.434V463.384H177.434Z" fill="#FFA144"/>
<path d="M42.082 267.005H86.042L105.642 407.285H106.202L125.802 267.005H169.762V463.005H140.642V314.605H140.082L117.682 463.005H91.922L69.522 314.605H68.962V463.005H42.082V267.005Z" fill="#FFA144"/>
</svg>
