<svg width="36" height="36" viewBox="0 0 36 36" fill="none" xmlns="http://www.w3.org/2000/svg">
<path d="M7.875 0C8.17337 0 8.45952 0.118526 8.6705 0.329505C8.88147 0.540483 9 0.826631 9 1.125V2.25H27V1.125C27 0.826631 27.1185 0.540483 27.3295 0.329505C27.5405 0.118526 27.8266 0 28.125 0C28.4234 0 28.7095 0.118526 28.9205 0.329505C29.1315 0.540483 29.25 0.826631 29.25 1.125V2.25H31.5C32.6935 2.25 33.8381 2.72411 34.682 3.56802C35.5259 4.41193 36 5.55653 36 6.75V31.5C36 32.6935 35.5259 33.8381 34.682 34.682C33.8381 35.5259 32.6935 36 31.5 36H4.5C3.30653 36 2.16193 35.5259 1.31802 34.682C0.474106 33.8381 0 32.6935 0 31.5V11.25H36V9H0V6.75C0 5.55653 0.474106 4.41193 1.31802 3.56802C2.16193 2.72411 3.30653 2.25 4.5 2.25H6.75V1.125C6.75 0.826631 6.86853 0.540483 7.0795 0.329505C7.29048 0.118526 7.57663 0 7.875 0V0Z" fill="#0F286A"/>
</svg>
