<svg width="30" height="9" viewBox="0 0 30 9" fill="none" xmlns="http://www.w3.org/2000/svg">
<path d="M26.5962 8.05592H25.7755C25.7092 8.03811 25.6488 8.00844 25.5824 7.99657C23.8564 7.73546 22.4925 6.32306 22.3778 4.66738C22.245 2.81583 23.3193 1.24914 25.0694 0.73878C25.2987 0.673501 25.5401 0.626025 25.7755 0.56668H26.5962C26.6506 0.584484 26.6988 0.614156 26.7592 0.620091C28.3524 0.875272 29.5655 2.00281 29.9095 3.54577C29.9336 3.66446 29.9698 3.78315 30 3.90184V4.70892C29.9819 4.76233 29.9517 4.81574 29.9457 4.86915C29.6922 6.41211 28.5757 7.58709 27.0247 7.94319C26.8738 7.9788 26.735 8.02034 26.5962 8.05594L26.5962 8.05592ZM3.39769 0.56665L4.21851 0.56668C4.2849 0.584484 4.34525 0.614156 4.41164 0.620091C6.14972 0.887141 7.5076 2.30547 7.61623 3.97898C7.73694 5.82459 6.65063 7.38535 4.89444 7.88978C4.67111 7.95506 4.44181 8.00253 4.21848 8.05594H3.39772C3.34341 8.03814 3.29512 8.00847 3.24081 7.9966C1.6717 7.71175 0.645748 6.81565 0.156911 5.32017C0.0905254 5.12433 0.0543152 4.91663 0 4.71485V3.90777C0.0181051 3.85436 0.0482803 3.80095 0.0543153 3.74754C0.313821 2.19865 1.42427 1.02957 2.97527 0.6735C3.12011 0.637864 3.25891 0.602257 3.39769 0.56665V0.56665ZM14.5867 0.56668H15.4074C15.4738 0.584484 15.5342 0.614156 15.6005 0.626025C17.3326 0.893075 18.7267 2.36482 18.7991 4.02646C18.8836 5.89581 17.7369 7.4803 15.9687 7.92539C15.7816 7.97286 15.5945 8.0144 15.4074 8.05594H14.5867C14.5203 8.03814 14.4599 8.00847 14.3935 7.9966C12.6615 7.73548 11.2674 6.25781 11.1889 4.59617C11.0984 2.72682 12.2511 1.14232 14.0194 0.697238C14.2125 0.649762 14.3996 0.608221 14.5867 0.56668V0.56668Z" fill="#04060A"/>
</svg>
