<svg width="20" height="21" viewBox="0 0 20 21" fill="none" xmlns="http://www.w3.org/2000/svg">
<path d="M18 0.649994H2C1.46957 0.649994 0.960859 0.857196 0.585786 1.22602C0.210714 1.59484 0 2.09507 0 2.61666L0 20.3167L4 16.3833H18C18.5304 16.3833 19.0391 16.1761 19.4142 15.8073C19.7893 15.4385 20 14.9383 20 14.4167V2.61666C20 2.09507 19.7893 1.59484 19.4142 1.22602C19.0391 0.857196 18.5304 0.649994 18 0.649994ZM14 4.58333C14.2967 4.58333 14.5867 4.66983 14.8334 4.83191C15.08 4.99398 15.2723 5.22435 15.3858 5.49387C15.4994 5.76339 15.5291 6.05996 15.4712 6.34609C15.4133 6.63221 15.2704 6.89503 15.0607 7.10131C14.8509 7.30759 14.5836 7.44807 14.2926 7.50499C14.0017 7.5619 13.7001 7.53269 13.426 7.42105C13.1519 7.30941 12.9176 7.12036 12.7528 6.87779C12.588 6.63523 12.5 6.35005 12.5 6.05833C12.5 5.66713 12.658 5.29196 12.9393 5.01534C13.2206 4.73873 13.6022 4.58333 14 4.58333ZM6 4.58333C6.29667 4.58333 6.58668 4.66983 6.83336 4.83191C7.08003 4.99398 7.27229 5.22435 7.38582 5.49387C7.49935 5.76339 7.52906 6.05996 7.47118 6.34609C7.4133 6.63221 7.27044 6.89503 7.06066 7.10131C6.85088 7.30759 6.58361 7.44807 6.29264 7.50499C6.00166 7.5619 5.70006 7.53269 5.42597 7.42105C5.15189 7.30941 4.91762 7.12036 4.7528 6.87779C4.58797 6.63523 4.5 6.35005 4.5 6.05833C4.5 5.66713 4.65804 5.29196 4.93934 5.01534C5.22064 4.73873 5.60218 4.58333 6 4.58333ZM10 12.45C7.39 12.45 5.17 11.7912 4.35 9.49999H15.65C14.83 11.7912 12.61 12.45 10 12.45Z" fill="#04060A"/>
</svg>
