<svg width="20" height="19" viewBox="0 0 20 19" fill="none" xmlns="http://www.w3.org/2000/svg">
<path d="M8.48889 2.01242C7.87831 1.61125 7.16134 1.39762 6.42857 1.39762C5.44617 1.39762 4.50234 1.78129 3.80516 2.46686C3.10769 3.1527 2.71429 4.08471 2.71429 5.05833C2.71429 5.78424 2.93323 6.49314 3.34243 7.09534C3.75156 7.69744 4.33218 8.16547 5.00991 8.44151C5.68756 8.71753 6.43277 8.78962 7.15163 8.64901C7.87053 8.5084 8.53201 8.16112 9.05198 7.64981C9.57205 7.13841 9.9272 6.48582 10.0712 5.77409C10.2152 5.06231 10.1412 4.32462 9.85897 3.65468C9.57681 2.98483 9.09956 2.41366 8.48889 2.01242ZM4.20306 1.79695C4.86109 1.3646 5.63559 1.13333 6.42857 1.13333C7.49212 1.13333 8.51046 1.54886 9.25998 2.2859C10.0092 3.02265 10.4286 4.02009 10.4286 5.05833C10.4286 5.83273 10.1951 6.59045 9.75663 7.23571C9.3181 7.88108 8.69391 8.38534 7.96204 8.68344C7.23009 8.98156 6.42421 9.05969 5.64665 8.9076C4.86912 8.75552 4.15604 8.38034 3.59716 7.83077C3.03837 7.28129 2.6588 6.58223 2.50511 5.82247C2.35144 5.06277 2.43023 4.27522 2.7319 3.55906C3.03361 2.8428 3.54513 2.22924 4.20306 1.79695ZM12.3571 17.8333H12.0714V15.1726C12.0714 14.199 11.678 13.267 10.9806 12.5811C10.2834 11.8956 9.33955 11.5119 8.35714 11.5119H4.5C3.5176 11.5119 2.57377 11.8956 1.87659 12.5811C1.17912 13.267 0.785714 14.199 0.785714 15.1726V17.8333H0.5V15.1726C0.5 14.1344 0.91935 13.1369 1.66859 12.4002C2.41811 11.6631 3.43645 11.2476 4.5 11.2476H8.35714C9.4207 11.2476 10.439 11.6631 11.1886 12.4002C11.9378 13.1369 12.3571 14.1344 12.3571 15.1726V17.8333ZM13.3571 2.39762H18.7857V2.6619H13.3571V2.39762ZM13.3571 5.55833H18.7857V5.82262H13.3571V5.55833ZM13.3571 8.71905H16.8571V8.98333H13.3571V8.71905Z" fill="#04060A" stroke="#04060A"/>
</svg>
