<svg width="24" height="25" viewBox="0 0 24 25" fill="none" xmlns="http://www.w3.org/2000/svg">
<path d="M23.2031 4.15392H7.1553C7.03439 4.15392 6.93547 4.24763 6.93547 4.36215V5.8198C6.93547 5.93433 7.03439 6.02804 7.1553 6.02804H23.2031C23.324 6.02804 23.4229 5.93433 23.4229 5.8198V4.36215C23.4229 4.24763 23.324 4.15392 23.2031 4.15392ZM23.2031 11.5463H7.1553C7.03439 11.5463 6.93547 11.64 6.93547 11.7545V13.2122C6.93547 13.3267 7.03439 13.4204 7.1553 13.4204H23.2031C23.324 13.4204 23.4229 13.3267 23.4229 13.2122V11.7545C23.4229 11.64 23.324 11.5463 23.2031 11.5463ZM23.2031 18.9386H7.1553C7.03439 18.9386 6.93547 19.0323 6.93547 19.1469V20.6045C6.93547 20.719 7.03439 20.8127 7.1553 20.8127H23.2031C23.324 20.8127 23.4229 20.719 23.4229 20.6045V19.1469C23.4229 19.0323 23.324 18.9386 23.2031 18.9386ZM1 5.09098C1 5.2824 1.0398 5.47195 1.11714 5.6488C1.19447 5.82565 1.30782 5.98634 1.45071 6.12169C1.5936 6.25705 1.76324 6.36441 1.94994 6.43767C2.13664 6.51092 2.33674 6.54863 2.53883 6.54863C2.74091 6.54863 2.94101 6.51092 3.12771 6.43767C3.31441 6.36441 3.48405 6.25705 3.62694 6.12169C3.76983 5.98634 3.88318 5.82565 3.96052 5.6488C4.03785 5.47195 4.07765 5.2824 4.07765 5.09098C4.07765 4.89956 4.03785 4.71001 3.96052 4.53316C3.88318 4.35631 3.76983 4.19562 3.62694 4.06027C3.48405 3.92491 3.31441 3.81754 3.12771 3.74429C2.94101 3.67103 2.74091 3.63333 2.53883 3.63333C2.33674 3.63333 2.13664 3.67103 1.94994 3.74429C1.76324 3.81754 1.5936 3.92491 1.45071 4.06027C1.30782 4.19562 1.19447 4.35631 1.11714 4.53316C1.0398 4.71001 1 4.89956 1 5.09098ZM1 12.4833C1 12.6748 1.0398 12.8643 1.11714 13.0411C1.19447 13.218 1.30782 13.3787 1.45071 13.514C1.5936 13.6494 1.76324 13.7568 1.94994 13.83C2.13664 13.9033 2.33674 13.941 2.53883 13.941C2.74091 13.941 2.94101 13.9033 3.12771 13.83C3.31441 13.7568 3.48405 13.6494 3.62694 13.514C3.76983 13.3787 3.88318 13.218 3.96052 13.0411C4.03785 12.8643 4.07765 12.6748 4.07765 12.4833C4.07765 12.2919 4.03785 12.1024 3.96052 11.9255C3.88318 11.7487 3.76983 11.588 3.62694 11.4526C3.48405 11.3173 3.31441 11.2099 3.12771 11.1366C2.94101 11.0634 2.74091 11.0257 2.53883 11.0257C2.33674 11.0257 2.13664 11.0634 1.94994 11.1366C1.76324 11.2099 1.5936 11.3173 1.45071 11.4526C1.30782 11.588 1.19447 11.7487 1.11714 11.9255C1.0398 12.1024 1 12.2919 1 12.4833ZM1 19.8757C1 20.0671 1.0398 20.2567 1.11714 20.4335C1.19447 20.6104 1.30782 20.771 1.45071 20.9064C1.5936 21.0417 1.76324 21.1491 1.94994 21.2224C2.13664 21.2956 2.33674 21.3333 2.53883 21.3333C2.74091 21.3333 2.94101 21.2956 3.12771 21.2224C3.31441 21.1491 3.48405 21.0417 3.62694 20.9064C3.76983 20.771 3.88318 20.6104 3.96052 20.4335C4.03785 20.2567 4.07765 20.0671 4.07765 19.8757C4.07765 19.6843 4.03785 19.4947 3.96052 19.3179C3.88318 19.141 3.76983 18.9803 3.62694 18.845C3.48405 18.7096 3.31441 18.6022 3.12771 18.529C2.94101 18.4557 2.74091 18.418 2.53883 18.418C2.33674 18.418 2.13664 18.4557 1.94994 18.529C1.76324 18.6022 1.5936 18.7096 1.45071 18.845C1.30782 18.9803 1.19447 19.141 1.11714 19.3179C1.0398 19.4947 1 19.6843 1 19.8757Z" fill="#04060A"/>
</svg>
