<svg width="24" height="24" viewBox="0 0 24 24" fill="none" xmlns="http://www.w3.org/2000/svg">
<g clip-path="url(#clip0_726_3132)">
<path d="M9.00299 8.25C9.00299 8.84674 8.76594 9.41903 8.34398 9.84099C7.92202 10.2629 7.34973 10.5 6.75299 10.5C6.15625 10.5 5.58396 10.2629 5.162 9.84099C4.74004 9.41903 4.50299 8.84674 4.50299 8.25C4.50299 7.65326 4.74004 7.08097 5.162 6.65901C5.58396 6.23705 6.15625 6 6.75299 6C7.34973 6 7.92202 6.23705 8.34398 6.65901C8.76594 7.08097 9.00299 7.65326 9.00299 8.25Z" fill="#0F286A"/>
<path d="M2.25 3C1.65326 3 1.08097 3.23705 0.65901 3.65901C0.237053 4.08097 0 4.65326 0 5.25L0 18.75C0 19.3467 0.237053 19.919 0.65901 20.341C1.08097 20.7629 1.65326 21 2.25 21H21.75C22.3467 21 22.919 20.7629 23.341 20.341C23.7629 19.919 24 19.3467 24 18.75V5.25C24 4.65326 23.7629 4.08097 23.341 3.65901C22.919 3.23705 22.3467 3 21.75 3H2.25ZM21.75 4.5C21.9489 4.5 22.1397 4.57902 22.2803 4.71967C22.421 4.86032 22.5 5.05109 22.5 5.25V14.25L16.8375 11.3295C16.6968 11.259 16.5376 11.2346 16.3822 11.2596C16.2269 11.2847 16.0834 11.3579 15.972 11.469L10.407 17.034L6.417 14.376C6.27294 14.2801 6.10014 14.237 5.92791 14.2539C5.75567 14.2709 5.5946 14.3468 5.472 14.469L1.503 18V18.81C1.50121 18.79 1.50021 18.77 1.5 18.75V5.25C1.5 5.05109 1.57902 4.86032 1.71967 4.71967C1.86032 4.57902 2.05109 4.5 2.25 4.5H21.75Z" fill="#0F286A"/>
</g>
<defs>
<clipPath id="clip0_726_3132">
<rect width="24" height="24" fill="white"/>
</clipPath>
</defs>
</svg>
