<svg width="27" height="25" viewBox="0 0 27 25" fill="none" xmlns="http://www.w3.org/2000/svg">
<path d="M13.502 10.7646H9.87695M13.502 7.23523V10.7646V7.23523ZM13.502 10.7646V14.2941V10.7646ZM13.502 10.7646H17.127H13.502Z" stroke="black" stroke-width="2" stroke-linecap="round"/>
<path d="M15.918 20.1764C20.4746 20.1764 22.7535 20.1764 24.1685 18.7976C25.5846 17.42 25.5846 15.2011 25.5846 10.7647C25.5846 6.3282 25.5846 4.10938 24.1685 2.73173C22.7535 1.35291 20.4746 1.35291 15.918 1.35291H11.0846C6.52801 1.35291 4.24909 1.35291 2.83414 2.73173C1.41797 4.10938 1.41797 6.3282 1.41797 10.7647C1.41797 15.2011 1.41797 17.42 2.83414 18.7976C3.62318 19.567 4.68047 19.907 6.2513 20.0564" stroke="black" stroke-width="2" stroke-linecap="round" stroke-linejoin="round"/>
<path d="M15.9183 20.1767C14.4248 20.1767 12.7791 20.7649 11.2771 21.5238C8.86284 22.7438 7.65572 23.3543 7.06122 22.9649C6.46672 22.5767 6.57909 21.3708 6.80505 18.9602L6.8558 18.412" stroke="black" stroke-width="2" stroke-linecap="round"/>
</svg>
