<svg width="36" height="36" viewBox="0 0 36 36" fill="none" xmlns="http://www.w3.org/2000/svg">
<rect width="36" height="36" rx="10" fill="#FFA144"/>
<path d="M26 9H10C8.897 9 8 9.91708 8 11.0448V23.3134C8 24.4411 8.897 25.3582 10 25.3582H13V29.2095L19.277 25.3582H26C27.103 25.3582 28 24.4411 28 23.3134V11.0448C28 9.91708 27.103 9 26 9ZM26 23.3134H18.723L15 25.5964V23.3134H10V11.0448H26V23.3134Z" fill="#F8FBFF"/>
<path d="M17 21.2687H19V18.2015H22V16.1567H19V13.0895H17V16.1567H14V18.2015H17V21.2687Z" fill="#F8FBFF"/>
</svg>
