<svg width="36" height="36" viewBox="0 0 36 36" fill="none" xmlns="http://www.w3.org/2000/svg">
<path fill-rule="evenodd" clip-rule="evenodd" d="M0 18C0 27.9409 8.05909 36 18 36C27.9409 36 36 27.9409 36 18C36 8.05909 27.9409 2.38419e-07 18 2.38419e-07C8.05909 2.38419e-07 0 8.05909 0 18ZM14.7273 23.2364C14.7246 23.4686 14.7831 23.6975 14.8968 23.8999C15.0105 24.1024 15.1756 24.2714 15.3753 24.39C15.5693 24.5016 15.7914 24.5548 16.0149 24.5432C16.2385 24.5316 16.4539 24.4557 16.6353 24.3245L23.9989 19.0882C24.1699 18.9632 24.3086 18.7993 24.4036 18.6101C24.4987 18.4209 24.5473 18.2117 24.5455 18C24.5475 17.788 24.4991 17.5785 24.404 17.389C24.309 17.1994 24.1701 17.0353 23.9989 16.9102L16.6353 11.6738C16.4539 11.5427 16.2385 11.4668 16.0149 11.4552C15.7914 11.4435 15.5693 11.4967 15.3753 11.6084C15.1753 11.7271 15.0101 11.8963 14.8964 12.0991C14.7826 12.3019 14.7243 12.5311 14.7273 12.7636L14.7273 23.2364Z" fill="#FFA144"/>
</svg>
