<svg width="15" height="18" viewBox="0 0 15 18" fill="none" xmlns="http://www.w3.org/2000/svg">
<path fill-rule="evenodd" clip-rule="evenodd" d="M10.9091 1.38462C10.9091 2.14932 11.529 2.76923 12.2937 2.76923H14.3077C14.69 2.76923 15 3.08447 15 3.46682C15 3.84338 14.6947 4.15385 14.3182 4.15385C13.9416 4.15385 13.6364 4.45911 13.6364 4.83566V15.6542C13.6364 16.2701 13.3941 16.8614 12.9619 17.3002C12.521 17.7479 11.9189 18 11.2906 18H3.70944C3.08109 18 2.479 17.7479 2.03809 17.3002C1.60589 16.8614 1.36364 16.2701 1.36364 15.6542V4.83566C1.36364 4.45911 1.05838 4.15385 0.681818 4.15385C0.30526 4.15385 0 3.84338 0 3.46682C0 3.08447 0.309957 2.76923 0.692308 2.76923H2.70629C3.471 2.76923 4.09091 2.14932 4.09091 1.38462C4.09091 1.01739 4.23458 0.66521 4.49031 0.405544C4.74604 0.145879 5.09289 0 5.45455 0H9.54545C9.90711 0 10.254 0.145879 10.5097 0.405544C10.7654 0.66521 10.9091 1.01739 10.9091 1.38462ZM9.54545 2.07692C9.54545 1.69457 9.2355 1.38462 8.85315 1.38462H6.14685C5.7645 1.38462 5.45455 1.69457 5.45455 2.07692C5.45455 2.45927 5.7645 2.76923 6.14685 2.76923H8.85315C9.2355 2.76923 9.54545 2.45927 9.54545 2.07692ZM2.72727 11.8427C2.72727 14.4786 4.8641 16.6154 7.5 16.6154C10.1359 16.6154 12.2727 14.4786 12.2727 11.8427V8.92657C12.2727 6.29067 10.1359 4.15385 7.5 4.15385C4.8641 4.15385 2.72727 6.29067 2.72727 8.92657V11.8427ZM5.45455 6.22028C5.45455 5.84372 5.14928 5.53846 4.77273 5.53846C4.39617 5.53846 4.09091 5.84372 4.09091 6.22028V14.549C4.09091 14.9255 4.39617 15.2308 4.77273 15.2308C5.14928 15.2308 5.45455 14.9255 5.45455 14.549V6.22028ZM6.81818 6.22028C6.81818 5.84372 7.12344 5.53846 7.5 5.53846C7.87656 5.53846 8.18182 5.84372 8.18182 6.22028V14.549C8.18182 14.9255 7.87656 15.2308 7.5 15.2308C7.12344 15.2308 6.81818 14.9255 6.81818 14.549V6.22028ZM9.54545 6.22028C9.54545 5.84372 9.85071 5.53846 10.2273 5.53846C10.6038 5.53846 10.9091 5.84372 10.9091 6.22028V14.549C10.9091 14.9255 10.6038 15.2308 10.2273 15.2308C9.85071 15.2308 9.54545 14.9255 9.54545 14.549V6.22028Z" fill="#F8FBFF"/>
</svg>
