<svg width="36" height="36" viewBox="0 0 36 36" fill="none" xmlns="http://www.w3.org/2000/svg">
<path fill-rule="evenodd" clip-rule="evenodd" d="M36 18C36 8.05909 27.9409 0 18 0C8.05909 0 0 8.05909 0 18C0 27.9409 8.05909 36 18 36C27.9409 36 36 27.9409 36 18ZM21.2727 12.7636C21.2754 12.5314 21.2169 12.3025 21.1032 12.1001C20.9895 11.8976 20.8244 11.7286 20.6247 11.61C20.4307 11.4984 20.2086 11.4452 19.9851 11.4568C19.7615 11.4684 19.5461 11.5443 19.3647 11.6755L12.0011 16.9118C11.8301 17.0368 11.6914 17.2007 11.5964 17.3899C11.5013 17.5791 11.4527 17.7883 11.4545 18C11.4525 18.212 11.5009 18.4215 11.596 18.611C11.691 18.8006 11.8299 18.9647 12.0011 19.0898L19.3647 24.3262C19.5461 24.4573 19.7615 24.5332 19.9851 24.5448C20.2086 24.5565 20.4307 24.5033 20.6247 24.3916C20.8247 24.2729 20.9899 24.1037 21.1036 23.9009C21.2174 23.6981 21.2757 23.4689 21.2727 23.2364V12.7636Z" fill="#FFA144"/>
</svg>
