<svg width="24" height="24" viewBox="0 0 24 24" fill="none" xmlns="http://www.w3.org/2000/svg">
<path d="M2.08624 0V13.9969H0V19.0781H7.34562V13.9969H5.25938V0H2.08624ZM10.415 0V9.035H8.32688V14.1162H15.6731V9.035H13.5862V0H10.415ZM18.7406 0V4.0325H16.6544V9.11374H24V4.0325H21.9138V0H18.7406ZM17.7188 5.04062H22.9356V6.04938H17.7188V5.04062ZM18.7406 9.9625V24H21.9137V9.9625H18.7406ZM9.39188 10.0431H14.6081V11.0519H9.39188V10.0431V10.0431ZM10.415 14.9238V24H13.5862V14.9238H10.415V14.9238ZM1.06438 15.0044H6.28126V16.0131H1.06438V15.0044V15.0044ZM2.08688 19.9262V24H5.26V19.9262H2.08688V19.9262Z" fill="#FFA144"/>
</svg>
