<svg width="21" height="24" viewBox="0 0 21 24" fill="none" xmlns="http://www.w3.org/2000/svg">
<path fill-rule="evenodd" clip-rule="evenodd" d="M14.7692 1.84615C14.7692 2.86576 15.5958 3.69231 16.6154 3.69231H19.3846C19.8944 3.69231 20.3077 4.10558 20.3077 4.61538V4.61538C20.3077 5.12519 19.8944 5.53846 19.3846 5.53846V5.53846C18.8748 5.53846 18.4615 5.95174 18.4615 6.46154V20.8484C18.4615 21.6843 18.1295 22.4859 17.5385 23.0769V23.0769C16.9474 23.668 16.1458 24 15.31 24H4.99774C4.16189 24 3.36027 23.668 2.76923 23.0769V23.0769C2.17819 22.4859 1.84615 21.6843 1.84615 20.8484V6.46154C1.84615 5.95174 1.43288 5.53846 0.923077 5.53846V5.53846C0.413276 5.53846 0 5.12519 0 4.61538V4.61538C0 4.10558 0.413276 3.69231 0.923077 3.69231H3.69231C4.71191 3.69231 5.53846 2.86576 5.53846 1.84615V1.84615C5.53846 1.35652 5.73297 0.886947 6.07919 0.540726C6.42541 0.194505 6.89499 0 7.38462 0H12.9231C13.4127 0 13.8823 0.194505 14.2285 0.540726C14.5747 0.886947 14.7692 1.35652 14.7692 1.84615V1.84615ZM12.9231 2.76923C12.9231 2.25943 12.5098 1.84615 12 1.84615H8.30769C7.79789 1.84615 7.38462 2.25943 7.38462 2.76923V2.76923C7.38462 3.27903 7.79789 3.69231 8.30769 3.69231H12C12.5098 3.69231 12.9231 3.27903 12.9231 2.76923V2.76923ZM3.69231 15.6923C3.69231 19.2609 6.58524 22.1538 10.1538 22.1538V22.1538C13.7225 22.1538 16.6154 19.2609 16.6154 15.6923V12C16.6154 8.43139 13.7225 5.53846 10.1538 5.53846V5.53846C6.58524 5.53846 3.69231 8.43139 3.69231 12V15.6923ZM7.38462 8.30769C7.38462 7.79789 6.97134 7.38462 6.46154 7.38462V7.38462C5.95174 7.38462 5.53846 7.79789 5.53846 8.30769V19.3846C5.53846 19.8944 5.95174 20.3077 6.46154 20.3077V20.3077C6.97134 20.3077 7.38462 19.8944 7.38462 19.3846V8.30769ZM9.23077 8.30769C9.23077 7.79789 9.64405 7.38462 10.1538 7.38462V7.38462C10.6636 7.38462 11.0769 7.79789 11.0769 8.30769V19.3846C11.0769 19.8944 10.6636 20.3077 10.1538 20.3077V20.3077C9.64405 20.3077 9.23077 19.8944 9.23077 19.3846V8.30769ZM12.9231 8.30769C12.9231 7.79789 13.3364 7.38462 13.8462 7.38462V7.38462C14.356 7.38462 14.7692 7.79789 14.7692 8.30769V19.3846C14.7692 19.8944 14.356 20.3077 13.8462 20.3077V20.3077C13.3364 20.3077 12.9231 19.8944 12.9231 19.3846V8.30769Z" fill="#FFA144"/>
</svg>
