<svg width="26" height="24" viewBox="0 0 26 24" fill="none" xmlns="http://www.w3.org/2000/svg">
<path d="M19.5276 20H5.80534L2.63867 23V6C2.63867 4.35 4.06367 3 5.80534 3H19.5276C21.2692 3 22.6942 4.35 22.6942 6V17C22.6942 18.65 21.2692 20 19.5276 20Z" fill="#FFA144"/>
<path d="M11.6113 10H13.7224V15.5H11.6113V10Z" fill="#F8FBFF"/>
<path d="M12.6669 8.5C13.2499 8.5 13.7224 8.05228 13.7224 7.5C13.7224 6.94772 13.2499 6.5 12.6669 6.5C12.0839 6.5 11.6113 6.94772 11.6113 7.5C11.6113 8.05228 12.0839 8.5 12.6669 8.5Z" fill="#F8FBFF"/>
</svg>
