<svg width="24" height="24" viewBox="0 0 24 24" fill="none" xmlns="http://www.w3.org/2000/svg">
<path d="M12 0C5.376 0 0 5.376 0 12C0 18.624 5.376 24 12 24C18.624 24 24 18.624 24 12C24 5.376 18.624 0 12 0ZM12.072 20.4V17.988H12C10.464 17.988 8.928 17.4 7.752 16.236C6.77525 15.2582 6.16552 13.9735 6.02562 12.5986C5.88572 11.2236 6.2242 9.84247 6.984 8.688L8.304 10.008C7.452 11.604 7.668 13.62 9.012 14.964C9.852 15.804 10.956 16.2 12.06 16.176V13.608L15.456 17.004L12.072 20.4ZM17.004 15.312L15.684 13.992C16.536 12.396 16.32 10.38 14.976 9.036C14.5865 8.64324 14.1228 8.33174 13.6119 8.11957C13.1011 7.90739 12.5532 7.79877 12 7.8H11.928V10.38L8.532 6.996L11.928 3.6V6.024C13.488 6 15.06 6.564 16.248 7.764C18.288 9.804 18.54 12.984 17.004 15.312V15.312Z" fill="#FFA144"/>
</svg>
