<svg width="36" height="36" viewBox="0 0 36 36" fill="none" xmlns="http://www.w3.org/2000/svg">
<path d="M19.4992 28.0999H16.5992C16.0992 28.0999 15.6992 27.7999 15.5992 27.2999L15.0992 25.4999L14.6992 25.2999L13.0992 26.1999C12.6992 26.3999 12.1992 26.3999 11.8992 25.9999L9.79922 23.8999C9.49922 23.5999 9.39922 23.0999 9.59922 22.6999L10.4992 21.0999L10.2992 20.6999L8.49922 20.1999C8.09922 20.0999 7.69922 19.6999 7.69922 19.1999V16.2999C7.69922 15.7999 7.99922 15.3999 8.49922 15.2999L10.2992 14.7999L10.4992 14.3999L9.59922 12.7999C9.39922 12.3999 9.39922 11.8999 9.79922 11.5999L11.8992 9.4999C12.1992 9.1999 12.6992 9.0999 13.0992 9.2999L14.6992 10.1999L15.0992 9.9999L15.5992 8.1999C15.6992 7.7999 16.0992 7.3999 16.5992 7.3999H19.4992C19.9992 7.3999 20.3992 7.6999 20.4992 8.1999L20.9992 9.9999L21.3992 10.1999L22.9992 9.2999C23.3992 9.0999 23.8992 9.0999 24.1992 9.4999L26.2992 11.5999C26.5992 11.8999 26.6992 12.3999 26.4992 12.7999L25.5992 14.3999L25.7992 14.7999L27.5992 15.2999C27.9992 15.3999 28.3992 15.7999 28.3992 16.2999V19.1999C28.3992 19.6999 28.0992 20.0999 27.5992 20.1999L25.7992 20.6999L25.5992 21.0999L26.4992 22.6999C26.6992 23.0999 26.6992 23.5999 26.2992 23.8999L24.1992 25.9999C23.8992 26.2999 23.3992 26.3999 22.9992 26.1999L21.3992 25.2999L20.9992 25.4999L20.4992 27.2999C20.2992 27.7999 19.8992 28.0999 19.4992 28.0999ZM17.2992 26.0999H18.6992L19.1992 23.9999L19.6992 23.7999C20.0992 23.6999 20.3992 23.4999 20.7992 23.3999L21.2992 23.0999L23.1992 24.1999L24.1992 23.1999L23.0992 21.2999L23.3992 20.7999C23.5992 20.4999 23.6992 20.0999 23.7992 19.6999L23.9992 19.1999L26.0992 18.6999V17.2999L23.9992 16.7999L23.7992 16.2999C23.6992 15.8999 23.4992 15.5999 23.3992 15.1999L23.0992 14.6999L24.1992 12.7999L23.1992 11.7999L21.2992 12.8999L20.7992 12.5999C20.4992 12.3999 20.0992 12.2999 19.6992 12.1999L19.1992 11.9999L18.6992 9.8999H17.2992L16.7992 11.9999L16.2992 12.1999C15.8992 12.2999 15.5992 12.4999 15.1992 12.5999L14.6992 12.8999L12.7992 11.7999L11.7992 12.7999L12.8992 14.6999L12.5992 15.1999C12.3992 15.4999 12.2992 15.8999 12.1992 16.2999L11.9992 16.7999L9.89922 17.2999V18.6999L11.9992 19.1999L12.1992 19.6999C12.2992 20.0999 12.4992 20.3999 12.5992 20.7999L12.8992 21.2999L11.7992 23.1999L12.7992 24.1999L14.6992 23.0999L15.1992 23.3999C15.4992 23.5999 15.8992 23.6999 16.2992 23.7999L16.7992 23.9999L17.2992 26.0999Z" fill="#04060A"/>
<path d="M17.9992 22.3002C15.5992 22.3002 13.6992 20.4002 13.6992 18.0002C13.6992 15.6002 15.5992 13.7002 17.9992 13.7002C20.3992 13.7002 22.2992 15.6002 22.2992 18.0002C22.2992 20.4002 20.3992 22.3002 17.9992 22.3002ZM17.9992 15.7002C16.6992 15.7002 15.6992 16.7002 15.6992 18.0002C15.6992 19.3002 16.6992 20.3002 17.9992 20.3002C19.2992 20.3002 20.2992 19.3002 20.2992 18.0002C20.2992 16.7002 19.2992 15.7002 17.9992 15.7002Z" fill="#04060A"/>
<path d="M18 2C17.4 2 17 2.4 17 3C17 3.6 17.4 4 18 4C25.7 4 32 10.3 32 18C32 25.7 25.7 32 18 32C10.3 32 4 25.7 4 18C4 15.2 4.8 12.5 6.4 10.2V11.4C6.4 12 6.8 12.4 7.4 12.4C8 12.4 8.4 12 8.4 11.4V6.4H3.4C2.8 6.4 2.4 6.8 2.4 7.4C2.4 8 2.8 8.4 3.4 8.4H5.2C3.1 11.1 2 14.5 2 18C2 26.8 9.2 34 18 34C26.8 34 34 26.8 34 18C34 9.2 26.8 2 18 2Z" fill="#04060A"/>
</svg>
