<svg width="17" height="17" viewBox="0 0 17 17" fill="none" xmlns="http://www.w3.org/2000/svg">
<path d="M0.708333 17C0.520472 17 0.340304 16.936 0.207466 16.8222C0.0746279 16.7083 0 16.5539 0 16.3929C0 16.2318 0.0746279 16.0774 0.207466 15.9635C0.340304 15.8497 0.520472 15.7857 0.708333 15.7857H2.125V14.5714C2.12471 13.5405 2.4647 12.5305 3.10569 11.6581C3.74668 10.7857 4.66252 10.0866 5.74742 9.64143C6.15825 9.47264 6.375 9.18364 6.375 8.925V8.075C6.375 7.81636 6.15683 7.52736 5.74742 7.35857C4.66252 6.91342 3.74668 6.21428 3.10569 5.34191C2.4647 4.46954 2.12471 3.45954 2.125 2.42857V1.21429H0.708333C0.520472 1.21429 0.340304 1.15032 0.207466 1.03646C0.0746279 0.922596 0 0.768167 0 0.607143C0 0.446119 0.0746279 0.291689 0.207466 0.177828C0.340304 0.0639666 0.520472 0 0.708333 0H16.2917C16.4795 0 16.6597 0.0639666 16.7925 0.177828C16.9254 0.291689 17 0.446119 17 0.607143C17 0.768167 16.9254 0.922596 16.7925 1.03646C16.6597 1.15032 16.4795 1.21429 16.2917 1.21429H14.875V2.42857C14.8753 3.45954 14.5353 4.46954 13.8943 5.34191C13.2533 6.21428 12.3375 6.91342 11.2526 7.35857C10.8417 7.52736 10.625 7.81636 10.625 8.075V8.925C10.625 9.18364 10.8432 9.47264 11.2526 9.64143C12.3375 10.0866 13.2533 10.7857 13.8943 11.6581C14.5353 12.5305 14.8753 13.5405 14.875 14.5714V15.7857H16.2917C16.4795 15.7857 16.6597 15.8497 16.7925 15.9635C16.9254 16.0774 17 16.2318 17 16.3929C17 16.5539 16.9254 16.7083 16.7925 16.8222C16.6597 16.936 16.4795 17 16.2917 17H0.708333ZM3.54167 1.21429V2.42857C3.54167 3.08064 3.71167 3.6975 4.01908 4.25H12.9809C13.2869 3.6975 13.4583 3.08064 13.4583 2.42857V1.21429H3.54167ZM7.79167 8.925C7.79167 9.77621 7.1145 10.4259 6.35942 10.7367C5.5155 11.0829 4.80308 11.6267 4.30447 12.3053C3.80586 12.9839 3.54141 13.7695 3.54167 14.5714C3.54167 14.5714 4.7685 12.9941 7.79167 12.7743V8.925ZM9.20833 8.925V12.7743C12.2315 12.9941 13.4583 14.5714 13.4583 14.5714C13.4586 13.7695 13.1941 12.9839 12.6955 12.3053C12.1969 11.6267 11.4845 11.0829 10.6406 10.7367C9.8855 10.4259 9.20833 9.77743 9.20833 8.92621V8.925Z" fill="#E83946"/>
</svg>
