<svg width="869" height="869" viewBox="0 0 869 869" fill="none" xmlns="http://www.w3.org/2000/svg">
<path d="M859.667 421.067L23.1673 1.66731C19.7673 -0.0326946 15.8673 -0.432691 12.1673 0.467309C3.66731 2.56731 -1.63269 11.1673 0.467306 19.7673L86.6673 371.967C87.9673 377.267 91.8673 381.567 97.0673 383.267L244.767 433.967L97.1673 484.667C91.9673 486.467 88.0673 490.667 86.8673 495.967L0.467306 848.667C-0.432694 852.367 -0.0326891 856.267 1.66731 859.567C5.56731 867.467 15.1673 870.667 23.1673 866.767L859.667 449.767C862.767 448.267 865.267 445.667 866.867 442.667C870.767 434.667 867.567 425.067 859.667 421.067ZM99.0673 748.467L149.367 542.867L444.567 441.567C446.867 440.767 448.767 438.967 449.567 436.567C450.967 432.367 448.767 427.867 444.567 426.367L149.367 325.167L99.2673 120.367L727.267 435.267L99.0673 748.467Z" fill="#0F286A"/>
</svg>
