<svg width="33" height="30" viewBox="0 0 33 30" fill="none" xmlns="http://www.w3.org/2000/svg">
<path opacity="0.2" d="M31.5598 23.6037C30.267 24.7927 27.5286 24.0683 25.9717 24.9021C24.4148 25.7358 23.6085 28.4009 21.8709 28.8383C20.1333 29.2756 18.1455 27.3349 16.3384 27.3349C14.5313 27.3349 12.4878 29.262 10.8058 28.8383C9.12383 28.4146 8.23418 25.7358 6.70508 24.9021C5.17599 24.0683 2.40972 24.7927 1.11694 23.6037C1.11694 23.6037 8.5539 20.2141 8.5539 8.74715C8.5539 6.71724 9.37404 4.77048 10.8339 3.33512C12.2938 1.89976 14.2738 1.09338 16.3384 1.09338C18.4029 1.09338 20.383 1.89976 21.8428 3.33512C23.3027 4.77048 24.1228 6.71724 24.1228 8.74715C24.1228 20.2141 31.5598 23.6037 31.5598 23.6037Z" fill="#2F88FF"/>
<path opacity="0.2" d="M31.5598 23.6037C30.267 24.7927 27.5286 24.0683 25.9717 24.9021C24.4148 25.7358 23.6085 28.4009 21.8709 28.8383C20.1333 29.2756 18.1455 27.3349 16.3384 27.3349C14.5313 27.3349 12.4878 29.262 10.8058 28.8383C9.12383 28.4146 8.23418 25.7358 6.70508 24.9021C5.17599 24.0683 2.40972 24.7927 1.11694 23.6037C1.11694 23.6037 8.5539 20.2141 8.5539 8.74715C8.5539 6.71724 9.37404 4.77048 10.8339 3.33512C12.2938 1.89976 14.2738 1.09338 16.3384 1.09338C18.4029 1.09338 20.383 1.89976 21.8428 3.33512C23.3027 4.77048 24.1228 6.71724 24.1228 8.74715C24.1228 20.2141 31.5598 23.6037 31.5598 23.6037Z" fill="#2F88FF"/>
<path opacity="0.2" d="M31.5598 23.6037C30.267 24.7927 27.5286 24.0683 25.9717 24.9021C24.4148 25.7358 23.6085 28.4009 21.8709 28.8383C20.1333 29.2756 18.1455 27.3349 16.3384 27.3349C14.5313 27.3349 12.4878 29.262 10.8058 28.8383C9.12383 28.4146 8.23418 25.7358 6.70508 24.9021C5.17599 24.0683 2.40972 24.7927 1.11694 23.6037C1.11694 23.6037 8.5539 20.2141 8.5539 8.74715C8.5539 6.71724 9.37404 4.77048 10.8339 3.33512C12.2938 1.89976 14.2738 1.09338 16.3384 1.09338C18.4029 1.09338 20.383 1.89976 21.8428 3.33512C23.3027 4.77048 24.1228 6.71724 24.1228 8.74715C24.1228 20.2141 31.5598 23.6037 31.5598 23.6037Z" fill="#2F88FF"/>
<path opacity="0.2" d="M31.5598 23.6037C30.267 24.7927 27.5286 24.0683 25.9717 24.9021C24.4148 25.7358 23.6085 28.4009 21.8709 28.8383C20.1333 29.2756 18.1455 27.3349 16.3384 27.3349C14.5313 27.3349 12.4878 29.262 10.8058 28.8383C9.12383 28.4146 8.23418 25.7358 6.70508 24.9021C5.17599 24.0683 2.40972 24.7927 1.11694 23.6037C1.11694 23.6037 8.5539 20.2141 8.5539 8.74715C8.5539 6.71724 9.37404 4.77048 10.8339 3.33512C12.2938 1.89976 14.2738 1.09338 16.3384 1.09338C18.4029 1.09338 20.383 1.89976 21.8428 3.33512C23.3027 4.77048 24.1228 6.71724 24.1228 8.74715C24.1228 20.2141 31.5598 23.6037 31.5598 23.6037Z" fill="#2F88FF"/>
<path opacity="0.2" d="M31.5598 23.6037C30.267 24.7927 27.5286 24.0683 25.9717 24.9021C24.4148 25.7358 23.6085 28.4009 21.8709 28.8383C20.1333 29.2756 18.1455 27.3349 16.3384 27.3349C14.5313 27.3349 12.4878 29.262 10.8058 28.8383C9.12383 28.4146 8.23418 25.7358 6.70508 24.9021C5.17599 24.0683 2.40972 24.7927 1.11694 23.6037C1.11694 23.6037 8.5539 20.2141 8.5539 8.74715C8.5539 6.71724 9.37404 4.77048 10.8339 3.33512C12.2938 1.89976 14.2738 1.09338 16.3384 1.09338C18.4029 1.09338 20.383 1.89976 21.8428 3.33512C23.3027 4.77048 24.1228 6.71724 24.1228 8.74715C24.1228 20.2141 31.5598 23.6037 31.5598 23.6037Z" fill="#2F88FF"/>
<path opacity="0.2" d="M31.5598 23.6037C30.267 24.7927 27.5286 24.0683 25.9717 24.9021C24.4148 25.7358 23.6085 28.4009 21.8709 28.8383C20.1333 29.2756 18.1455 27.3349 16.3384 27.3349C14.5313 27.3349 12.4878 29.262 10.8058 28.8383C9.12383 28.4146 8.23418 25.7358 6.70508 24.9021C5.17599 24.0683 2.40972 24.7927 1.11694 23.6037C1.11694 23.6037 8.5539 20.2141 8.5539 8.74715C8.5539 6.71724 9.37404 4.77048 10.8339 3.33512C12.2938 1.89976 14.2738 1.09338 16.3384 1.09338C18.4029 1.09338 20.383 1.89976 21.8428 3.33512C23.3027 4.77048 24.1228 6.71724 24.1228 8.74715C24.1228 20.2141 31.5598 23.6037 31.5598 23.6037Z" fill="#2F88FF"/>
<path opacity="0.2" d="M31.5598 23.6037C30.267 24.7927 27.5286 24.0683 25.9717 24.9021C24.4148 25.7358 23.6085 28.4009 21.8709 28.8383C20.1333 29.2756 18.1455 27.3349 16.3384 27.3349C14.5313 27.3349 12.4878 29.262 10.8058 28.8383C9.12383 28.4146 8.23418 25.7358 6.70508 24.9021C5.17599 24.0683 2.40972 24.7927 1.11694 23.6037C1.11694 23.6037 8.5539 20.2141 8.5539 8.74715C8.5539 6.71724 9.37404 4.77048 10.8339 3.33512C12.2938 1.89976 14.2738 1.09338 16.3384 1.09338C18.4029 1.09338 20.383 1.89976 21.8428 3.33512C23.3027 4.77048 24.1228 6.71724 24.1228 8.74715C24.1228 20.2141 31.5598 23.6037 31.5598 23.6037Z" fill="#2F88FF"/>
<path opacity="0.2" d="M31.5598 23.6037C30.267 24.7927 27.5286 24.0683 25.9717 24.9021C24.4148 25.7358 23.6085 28.4009 21.8709 28.8383C20.1333 29.2756 18.1455 27.3349 16.3384 27.3349C14.5313 27.3349 12.4878 29.262 10.8058 28.8383C9.12383 28.4146 8.23418 25.7358 6.70508 24.9021C5.17599 24.0683 2.40972 24.7927 1.11694 23.6037C1.11694 23.6037 8.5539 20.2141 8.5539 8.74715C8.5539 6.71724 9.37404 4.77048 10.8339 3.33512C12.2938 1.89976 14.2738 1.09338 16.3384 1.09338C18.4029 1.09338 20.383 1.89976 21.8428 3.33512C23.3027 4.77048 24.1228 6.71724 24.1228 8.74715C24.1228 20.2141 31.5598 23.6037 31.5598 23.6037Z" fill="#2F88FF"/>
<path d="M32.6579 23.426C32.6286 23.2498 32.5564 23.0833 32.4475 22.9405C32.3386 22.7977 32.1962 22.6829 32.0324 22.6059C32.0046 22.6059 30.3087 21.7859 28.6267 19.6948C27.5636 18.3559 26.7495 16.8429 26.2218 15.2255L28.9881 14.1321C29.2435 14.0119 29.4426 13.8005 29.5449 13.5409C29.6472 13.2813 29.6449 12.9931 29.5386 12.7351C29.4322 12.4771 29.2297 12.2687 28.9724 12.1524C28.7152 12.0361 28.4225 12.0207 28.154 12.1093L25.6519 13.0934C25.3662 11.6619 25.2265 10.2059 25.2349 8.74715C25.2349 6.42726 24.2976 4.20239 22.6291 2.56198C20.9607 0.921573 18.6978 0 16.3383 0C13.9788 0 11.7159 0.921573 10.0475 2.56198C8.3791 4.20239 7.44179 6.42726 7.44179 8.74715C7.45011 10.2059 7.31041 11.6619 7.02476 13.0934L4.52261 12.1093C4.38571 12.0449 4.23685 12.0087 4.08518 12.003C3.93352 11.9973 3.78227 12.0221 3.64075 12.076C3.49922 12.1299 3.37042 12.2117 3.26226 12.3164C3.15411 12.4211 3.0689 12.5465 3.01188 12.6848C2.95486 12.8231 2.92723 12.9714 2.9307 13.1206C2.93417 13.2698 2.96866 13.4167 3.03205 13.5522C3.09544 13.6878 3.18639 13.8092 3.2993 13.909C3.4122 14.0087 3.54468 14.0846 3.68856 14.1321L6.45483 15.2255C5.9272 16.8429 5.11307 18.3559 4.04998 19.6948C2.38188 21.7859 0.685978 22.5923 0.644276 22.6059C0.479056 22.6812 0.335179 22.7953 0.225286 22.9381C0.115392 23.0809 0.0428454 23.248 0.0140194 23.4248C-0.0148066 23.6016 0.000970325 23.7827 0.0599642 23.9521C0.118958 24.1215 0.219363 24.274 0.352358 24.3964C1.35322 25.3121 2.785 25.4077 4.04998 25.4897C4.84233 25.5444 5.67638 25.5991 6.16291 25.8588C6.64944 26.1185 7.10817 26.7745 7.5808 27.4032C8.33144 28.4146 9.17939 29.5626 10.5278 29.9043C10.7833 29.9622 11.0441 29.9942 11.3062 30C12.3488 30 13.3496 29.5353 14.2532 29.1253C15.1568 28.7153 15.7545 28.4282 16.3383 28.4282C16.9222 28.4282 17.6867 28.7836 18.4235 29.1253C19.5633 29.6446 20.8422 30.2323 22.1489 29.9043C23.4556 29.5763 24.3452 28.4146 25.0959 27.4032C25.5685 26.7745 26.0411 26.1185 26.5137 25.8588C26.9864 25.5991 27.8343 25.5444 28.6267 25.4897C29.8916 25.4077 31.3234 25.3121 32.3243 24.3964C32.4553 24.273 32.554 24.1203 32.6121 23.9514C32.6702 23.7824 32.6859 23.6022 32.6579 23.426ZM28.4877 23.3166C27.4451 23.385 26.3608 23.4533 25.4434 23.9453C24.5259 24.4374 23.9143 25.2847 23.3026 26.1048C22.691 26.9248 22.1628 27.6355 21.5928 27.7859C21.0229 27.9362 20.2028 27.5262 19.3687 27.1435C18.5347 26.7608 17.4087 26.2415 16.3383 26.2415C15.268 26.2415 14.2671 26.6925 13.3079 27.1435C12.3488 27.5945 11.612 27.9089 11.0838 27.7859C10.5556 27.6629 9.93004 26.8565 9.374 26.1048C8.81797 25.3531 8.13683 24.4374 7.23327 23.9453C6.32972 23.4533 5.23155 23.385 4.18899 23.3166L3.60515 23.2756C4.37591 22.6411 5.07919 21.9313 5.70418 21.1572C6.81625 19.8041 8.05342 17.7813 8.84577 14.9932C8.87721 14.9183 8.90051 14.8405 8.91528 14.7608C9.42982 12.7968 9.68215 10.7752 9.66592 8.74715C9.66592 7.00724 10.3689 5.33858 11.6202 4.10827C12.8715 2.87797 14.5687 2.18679 16.3383 2.18679C18.108 2.18679 19.8051 2.87797 21.0564 4.10827C22.3077 5.33858 23.0107 7.00724 23.0107 8.74715C22.9957 10.7707 23.248 12.7875 23.7614 14.7472C23.7761 14.8268 23.7994 14.9047 23.8309 14.9795C24.6232 17.7813 25.8604 19.8041 26.9725 21.1572C27.5975 21.9313 28.3007 22.6411 29.0715 23.2756L28.4877 23.3166Z" fill="#04060A"/>
</svg>
