<svg width="30" height="30" viewBox="0 0 30 30" fill="none" xmlns="http://www.w3.org/2000/svg">
<path fill-rule="evenodd" clip-rule="evenodd" d="M0 15C0 23.2841 6.71591 30 15 30C23.2841 30 30 23.2841 30 15C30 6.71591 23.2841 0 15 0C6.71591 0 0 6.71591 0 15ZM12.2727 19.3636C12.2705 19.5572 12.3192 19.7479 12.414 19.9166C12.5088 20.0854 12.6463 20.2262 12.8127 20.325C12.9744 20.418 13.1595 20.4624 13.3458 20.4527C13.532 20.443 13.7116 20.3797 13.8627 20.2705L19.9991 15.9068C20.1415 15.8027 20.2572 15.6661 20.3364 15.5084C20.4156 15.3507 20.4561 15.1765 20.4545 15C20.4563 14.8233 20.4159 14.6488 20.3367 14.4908C20.2575 14.3329 20.1417 14.1961 19.9991 14.0918L13.8627 9.72818C13.7116 9.61891 13.532 9.55564 13.3458 9.54596C13.1595 9.53628 12.9744 9.58062 12.8127 9.67364C12.6461 9.77254 12.5085 9.9136 12.4137 10.0826C12.3189 10.2516 12.2703 10.4426 12.2727 10.6364L12.2727 19.3636Z" fill="#B2BCD2"/>
</svg>
