<svg width="22" height="22" viewBox="0 0 22 22" fill="none" xmlns="http://www.w3.org/2000/svg">
<path d="M10.9192 17.9333C8.34834 17.9333 6.26212 18.6078 6.21984 19.4445H6.21777V20.453H6.21812C6.29649 21.2787 8.36896 21.9415 10.9161 21.9415C13.5125 21.9415 15.6162 21.254 15.6162 20.4046V19.4703C15.6162 18.6215 13.5121 17.9333 10.9161 17.9333" fill="#F0B961"/>
<path d="M10.9192 20.5159C8.57693 20.5159 6.6368 19.9556 6.27999 19.2224C6.24484 19.291 6.22435 19.3662 6.21984 19.4431H6.21777V20.4517H6.21812C6.29649 21.2773 8.36896 21.9401 10.9161 21.9401C13.5125 21.9401 15.6162 21.2526 15.6162 20.4032V19.4689C15.6162 19.385 15.5953 19.3035 15.5568 19.2238C15.1986 19.9556 13.2564 20.5159 10.9161 20.5159" fill="#B88848"/>
<path d="M6.19396 5.8746C4.25659 5.85191 2.26353 5.4535 0.353308 5.88972C0.168714 5.932 -0.0251611 6.1111 0.00268268 6.28882C0.404526 8.88516 3.87228 14.4003 7.21937 10.9404C7.61296 10.5338 6.9399 9.94322 6.54287 10.354C3.91284 13.072 1.26115 8.24475 0.958995 6.28882C0.840745 6.42219 0.724558 6.55591 0.607683 6.68928C2.41856 6.27507 4.3549 6.68241 6.19362 6.70372C6.81065 6.71094 6.81065 5.88078 6.19362 5.8746H6.19396ZM15.599 5.8746C17.5363 5.85191 19.5294 5.4535 21.4393 5.88972C21.6239 5.932 21.8177 6.1111 21.7902 6.28882C21.3884 8.88516 17.9207 14.4003 14.5736 10.9404C14.18 10.5338 14.8527 9.94322 15.2501 10.354C17.8794 13.072 20.5314 8.24475 20.8339 6.28882C20.9515 6.42219 21.0684 6.55591 21.1849 6.68928C19.3744 6.27507 17.438 6.68241 15.599 6.70372C14.9823 6.71094 14.983 5.88078 15.599 5.8746Z" fill="#D29F54"/>
<path d="M10.9182 5.19089C15.2126 5.19089 18.6938 4.05324 18.6938 2.64989C18.6938 1.24653 15.2126 0.108887 10.9182 0.108887C6.62384 0.108887 3.14258 1.24653 3.14258 2.64989C3.14258 4.05324 6.62384 5.19089 10.9182 5.19089Z" fill="#D29F54"/>
<path d="M7.8987 2.90976C7.8987 1.63514 10.7704 0.580512 14.5152 0.396605C13.4389 0.213387 12.2162 0.108887 10.9182 0.108887C6.62339 0.108887 3.14258 1.24601 3.14258 2.64989C3.14258 4.05307 6.62305 5.19089 10.9182 5.19089C11.3121 5.19089 11.6989 5.18126 12.0773 5.16339C9.59477 4.73851 7.8987 3.88842 7.8987 2.90976Z" fill="#BB8947"/>
<path d="M18.6929 4.52346C18.6929 4.00405 18.641 3.49805 18.5441 3.00684C17.8404 4.17352 14.6941 5.05421 10.9162 5.05421C7.13947 5.05421 3.99313 4.17352 3.28844 3.00684C3.19008 3.50638 3.14057 4.01432 3.14063 4.52346V4.53515C3.14063 7.25249 4.52938 9.64327 6.63106 11.0389C6.91122 11.3294 9.00603 13.5813 9.07169 16.2632V18.7695C9.07169 19.4694 9.80009 20.0376 10.699 20.0376C10.755 20.0376 10.8097 20.0348 10.8637 20.0304C10.9513 20.0424 11.0407 20.0493 11.1318 20.0493C12.031 20.0493 12.7605 19.4824 12.7605 18.7815V16.2752C12.8302 13.3998 15.2337 11.0186 15.2337 11.0186C17.3169 9.62024 18.6919 7.23909 18.6919 4.5348V4.52346" fill="#F0B961"/>
<path d="M17.7314 5.3209C17.7314 4.87059 17.6795 4.43093 17.5832 4.00537C17.4082 4.257 17.0817 4.4935 16.6334 4.70525C16.6606 4.96375 16.675 5.22534 16.675 5.49106V5.50343C16.675 7.58312 15.827 9.46618 14.4551 10.8439C16.4358 9.61778 17.731 7.60718 17.731 5.33018V5.31987" fill="white"/>
<path d="M9.07462 18.724C9.18806 18.715 9.30699 18.737 9.41837 18.8082C9.87659 19.0993 10.9986 19.6961 11.5706 19.3372C11.9731 19.0856 12.265 18.7848 12.7634 18.6758V16.2768C12.7679 16.0936 12.7816 15.9128 12.8036 15.7347C12.4351 13.3831 10.6844 11.5021 10.4287 11.2385C8.32627 9.84352 6.9389 7.45034 6.9389 4.73506L6.93959 4.72887L6.9389 4.72268L6.93959 4.6969C5.08059 4.33459 3.72381 3.72581 3.29137 3.00806C3.19301 3.5076 3.1435 4.01554 3.14355 4.52468V4.53637C3.14355 7.25371 4.53231 9.64449 6.63399 11.0401C6.91415 11.3306 9.00896 13.5825 9.07462 16.2644V18.724Z" fill="#DDA653"/>
<path d="M11.1344 18.9097C11.0433 18.9097 10.9539 18.9032 10.8663 18.8953C10.8114 18.8983 10.7565 18.8999 10.7016 18.9001C9.80272 18.9001 9.07431 18.4656 9.07431 17.9314V18.6313C9.07431 19.1672 9.80272 19.6 10.7016 19.6C10.7577 19.6 10.8123 19.5986 10.8663 19.5951C10.9539 19.6037 11.0433 19.6096 11.1344 19.6096C12.0337 19.6096 12.7631 19.1751 12.7631 18.6409V17.941C12.7631 18.4752 12.0337 18.9097 11.1344 18.9097Z" fill="#B88848"/>
<path d="M13.2461 12.2764C13.2461 12.2764 11.2186 14.3458 11.1592 16.8493V18.3687C11.6793 18.2291 12.0505 17.8737 12.0505 17.455V15.5248C12.0928 13.969 13.1051 12.6023 13.7043 11.9258C13.5561 12.0482 13.4046 12.1671 13.2461 12.2764Z" fill="white"/>
</svg>
