<svg width="36" height="32" viewBox="0 0 36 32" fill="none" xmlns="http://www.w3.org/2000/svg">
<path d="M1 26.3784C2.70194 27.3194 15.0218 34.4212 23.7823 28.9477C32.5426 23.4742 32.0594 14.0441 32.0594 9.72294C32.853 8.06041 34.5294 7.21521 34.5294 2.71512C32.8827 4.23629 31.2459 4.75388 29.6191 4.26788C28.0253 1.83785 25.8325 0.76306 23.0407 1.04353C18.8529 1.46424 17.3208 5.57279 17.7717 10.8883C11.3146 14.1536 6.25133 8.52118 3.64192 4.26788C2.77006 7.61756 1.92938 11.6391 3.64192 16.0878C4.78362 19.0536 7.52809 21.5609 11.8754 23.61C7.46968 25.9978 3.84455 26.9205 1 26.3784Z" fill="#2F88FF" stroke="black" stroke-linejoin="round"/>
</svg>
