<svg width="22" height="22" viewBox="0 0 22 22" fill="none" xmlns="http://www.w3.org/2000/svg">
<path fill-rule="evenodd" clip-rule="evenodd" d="M11 0C4.925 0 0 4.925 0 11C0 17.075 4.925 22 11 22C17.075 22 22 17.075 22 11C22 4.925 17.075 0 11 0ZM7.8 13C7.65808 13.0016 7.51822 12.9659 7.39448 12.8964C7.27073 12.8269 7.16745 12.726 7.095 12.604C7.02679 12.4854 6.99427 12.3497 7.00137 12.2131C7.00847 12.0765 7.05487 11.9449 7.135 11.834L10.335 7.334C10.4114 7.22953 10.5115 7.14475 10.6272 7.08667C10.7428 7.02859 10.8706 6.99888 11 7C11.268 7 11.517 7.125 11.666 7.334L14.866 11.834C14.9461 11.9449 14.9925 12.0765 14.9996 12.2131C15.0067 12.3497 14.9742 12.4854 14.906 12.604C14.8335 12.7262 14.73 12.8271 14.6061 12.8967C14.4822 12.9662 14.3421 13.0018 14.2 13H7.8Z" fill="#7E8AAC"/>
</svg>
