<svg width="22" height="22" viewBox="0 0 22 22" fill="none" xmlns="http://www.w3.org/2000/svg">
<path fill-rule="evenodd" clip-rule="evenodd" d="M11 22C17.075 22 22 17.075 22 11C22 4.925 17.075 0 11 0C4.925 0 0 4.925 0 11C0 17.075 4.925 22 11 22ZM14.2 13C14.3419 13.0016 14.4818 12.9659 14.6055 12.8964C14.7293 12.8269 14.8326 12.726 14.905 12.604C14.9732 12.4854 15.0057 12.3497 14.9986 12.2131C14.9915 12.0765 14.9451 11.9449 14.865 11.834L11.665 7.334C11.5886 7.22953 11.4885 7.14475 11.3728 7.08667C11.2572 7.02859 11.1294 6.99888 11 7C10.8704 6.99872 10.7424 7.02835 10.6266 7.08644C10.5108 7.14453 10.4105 7.22939 10.334 7.334L7.134 11.834C7.05387 11.9449 7.00747 12.0765 7.00037 12.2131C6.99327 12.3497 7.02579 12.4854 7.094 12.604C7.16653 12.7262 7.26997 12.8271 7.39391 12.8967C7.51785 12.9662 7.65791 13.0018 7.8 13H14.2Z" fill="#FFA144"/>
</svg>
