<svg width="30" height="30" viewBox="0 0 30 30" fill="none" xmlns="http://www.w3.org/2000/svg">
<path fill-rule="evenodd" clip-rule="evenodd" d="M1.25 15C1.25 7.40608 7.40608 1.25 15 1.25C22.5939 1.25 28.75 7.40608 28.75 15C28.75 22.5939 22.5939 28.75 15 28.75C7.40608 28.75 1.25 22.5939 1.25 15Z" fill="#08AD36" stroke="#46598B" stroke-width="2" stroke-linecap="round" stroke-linejoin="round"/>
<path fill-rule="evenodd" clip-rule="evenodd" d="M21.6379 10.0536C22.126 10.5418 22.126 11.3333 21.6379 11.8214L13.879 19.9464C13.3908 20.4346 12.5994 20.4346 12.1112 19.9464L8.36123 16.1964C7.87308 15.7083 7.87308 14.9168 8.36123 14.4287C8.84939 13.9405 9.64085 13.9405 10.129 14.4287L12.9951 17.2948L19.8701 10.0536C20.3583 9.56549 21.1497 9.56549 21.6379 10.0536Z" fill="#F8FBFF"/>
</svg>
