<svg width="27" height="20" viewBox="0 0 27 20" fill="none" xmlns="http://www.w3.org/2000/svg">
<path d="M23.3334 5.55556V4.44444L20 6.66667L16.6667 4.44444V5.55556L20 7.77778L23.3334 5.55556ZM24.4445 0H2.22222C1 0 0 1 0 2.22222V17.7778C0 19 1 20 2.22222 20H24.4445C25.6667 20 26.6556 19 26.6556 17.7778L26.6667 2.22222C26.6667 1 25.6667 0 24.4445 0ZM8.8889 3.33333C10.7333 3.33333 12.2222 4.82222 12.2222 6.66667C12.2222 8.51111 10.7333 10 8.8889 10C7.04445 10 5.55556 8.51111 5.55556 6.66667C5.55556 4.82222 7.04445 3.33333 8.8889 3.33333ZM15.5556 16.6667H2.22222V15.5556C2.22222 13.3333 6.66667 12.1111 8.8889 12.1111C11.1111 12.1111 15.5556 13.3333 15.5556 15.5556V16.6667ZM24.4445 10H15.5556V3.33333H24.4445V10Z" fill="#04060A"/>
</svg>
